  0
SECTION
  2
HEADER
  9
$ACADVER
  1
AC1014
  9
$HANDSEED
  5
FFFF
  9
$INSUNITS
 70
     4
  9
$MEASUREMENT
 70
     1
  0
ENDSEC
  0
SECTION
  2
TABLES
  0
TABLE
  2
VPORT
  5
8
330
0
100
AcDbSymbolTable
 70
     4
  0
VPORT
  5
2E
330
8
100
AcDbSymbolTableRecord
100
AcDbViewportTableRecord
  2
*ACTIVE
 70
     0
 10
0.0
 20
0.0
 11
1.0
 21
1.0
 12
210.0
 22
148.5
 13
0.0
 23
0.0
 14
10.0
 24
10.0
 15
10.0
 25
10.0
 16
0.0
 26
0.0
 36
1.0
 17
0.0
 27
0.0
 37
0.0
 40
341.0
 41
1.24
 42
50.0
 43
0.0
 44
0.0
 50
0.0
 51
0.0
 71
     0
 72
   100
 73
     1
 74
     3
 75
     0
 76
     0
 77
     0
 78
     0
  0
ENDTAB
  0
TABLE
  2
LTYPE
  5
5
330
0
100
AcDbSymbolTable
 70
     1
  0
LTYPE
  5
14
330
5
100
AcDbSymbolTableRecord
100
AcDbLinetypeTableRecord
  2
BYBLOCK
 70
     0
  3

 72
    65
 73
     0
 40
0.0
  0
LTYPE
  5
15
330
5
100
AcDbSymbolTableRecord
100
AcDbLinetypeTableRecord
  2
BYLAYER
 70
     0
  3

 72
    65
 73
     0
 40
0.0
  0
LTYPE
  5
16
330
5
100
AcDbSymbolTableRecord
100
AcDbLinetypeTableRecord
  2
CONTINUOUS
 70
     0
  3
Solid line
 72
    65
 73
     0
 40
0.0
  0
ENDTAB
  0
TABLE
  2
LAYER
  5
2
100
AcDbSymbolTable
 70
2
  0
LAYER
  5
50
100
AcDbSymbolTableRecord
100
AcDbLayerTableRecord
  2
0
 70
0
  6
CONTINUOUS
  0
LAYER
  5
51
100
AcDbSymbolTableRecord
100
AcDbLayerTableRecord
  2
Layer_1
 70
0
  6
CONTINUOUS
  0
ENDTAB
  0
TABLE
  2
STYLE
  5
3
330
0
100
AcDbSymbolTable
 70
     1
  0
STYLE
  5
11
330
3
100
AcDbSymbolTableRecord
100
AcDbTextStyleTableRecord
  2
STANDARD
 70
     0
 40
0.0
 41
1.0
 50
0.0
 71
     0
 42
2.5
  3
txt
  4

  0
ENDTAB
  0
TABLE
  2
VIEW
  5
6
330
0
100
AcDbSymbolTable
 70
     0
  0
ENDTAB
  0
TABLE
  2
UCS
  5
7
330
0
100
AcDbSymbolTable
 70
     0
  0
ENDTAB
  0
TABLE
  2
APPID
  5
9
330
0
100
AcDbSymbolTable
 70
     2
  0
APPID
  5
12
330
9
100
AcDbSymbolTableRecord
100
AcDbRegAppTableRecord
  2
ACAD
 70
     0
  0
ENDTAB
  0
TABLE
  2
DIMSTYLE
  5
A
330
0
100
AcDbSymbolTable
 70
     1
  0
DIMSTYLE
105
27
330
A
100
AcDbSymbolTableRecord
100
AcDbDimStyleTableRecord
  2
ISO-25
 70
     0
  3

  4

  5

  6

  7

 40
1.0
 41
2.5
 42
0.625
 43
3.75
 44
1.25
 45
0.0
 46
0.0
 47
0.0
 48
0.0
140
2.5
141
2.5
142
0.0
143
0.03937007874016
144
1.0
145
0.0
146
1.0
147
0.625
 71
     0
 72
     0
 73
     0
 74
     0
 75
     0
 76
     0
 77
     1
 78
     8
170
     0
171
     3
172
     1
173
     0
174
     0
175
     0
176
     0
177
     0
178
     0
270
     2
271
     2
272
     2
273
     2
274
     3
340
11
275
     0
280
     0
281
     0
282
     0
283
     0
284
     8
285
     0
286
     0
287
     3
288
     0
  0
ENDTAB
  0
TABLE
  2
BLOCK_RECORD
  5
1
330
0
100
AcDbSymbolTable
 70
     1
  0
BLOCK_RECORD
  5
1F
330
1
100
AcDbSymbolTableRecord
100
AcDbBlockTableRecord
  2
*MODEL_SPACE
  0
BLOCK_RECORD
  5
1B
330
1
100
AcDbSymbolTableRecord
100
AcDbBlockTableRecord
  2
*PAPER_SPACE
  0
ENDTAB
  0
ENDSEC
  0
SECTION
  2
BLOCKS
  0
BLOCK
  5
20
330
1F
100
AcDbEntity
  8
0
100
AcDbBlockBegin
  2
*MODEL_SPACE
 70
     0
 10
0.0
 20
0.0
 30
0.0
  3
*MODEL_SPACE
  1

  0
ENDBLK
  5
21
330
1F
100
AcDbEntity
  8
0
100
AcDbBlockEnd
  0
BLOCK
  5
1C
330
1B
100
AcDbEntity
 67
     1
  8
0
100
AcDbBlockBegin
  2
*PAPER_SPACE
  1

  0
ENDBLK
  5
1D
330
1B
100
AcDbEntity
 67
     1
  8
0
100
AcDbBlockEnd
  0
ENDSEC
  0
SECTION
  2
ENTITIES
  0
SPLINE
  5
100
100
AcDbEntity
  8
Layer_1
 62
7
100
AcDbSpline
 70
8
 71
3
 72
8
 73
4
 74
0
 40
0
 40
0
 40
0
 40
0
 40
1
 40
1
 40
1
 40
1
 10
37.896910
 20
362.891990
 30
0.0
 10
32.356920
 20
362.891990
 30
0.0
 10
27.897000
 20
358.431560
 30
0.0
 10
27.897000
 20
352.891560
 30
0.0
  0
SPLINE
  5
101
100
AcDbEntity
  8
Layer_1
 62
7
100
AcDbSpline
 70
8
 71
3
 72
8
 73
4
 74
0
 40
0
 40
0
 40
0
 40
0
 40
1
 40
1
 40
1
 40
1
 10
27.897000
 20
222.891730
 30
0.0
 10
27.897000
 20
217.351730
 30
0.0
 10
32.356920
 20
212.891830
 30
0.0
 10
37.896910
 20
212.891830
 30
0.0
  0
LWPOLYLINE
  5
102
100
AcDbEntity
  8
Layer_1
 62
7
100
AcDbPolyline
 90
2
 70
0
 10
27.897000
 20
352.891560
 30
0.0
 10
27.897000
 20
222.891730
 30
0.0
  0
SPLINE
  5
103
100
AcDbEntity
  8
Layer_1
 62
7
100
AcDbSpline
 70
8
 71
3
 72
8
 73
4
 74
0
 40
0
 40
0
 40
0
 40
0
 40
1
 40
1
 40
1
 40
1
 10
267.896820
 20
212.891830
 30
0.0
 10
273.436810
 20
212.891830
 30
0.0
 10
277.896730
 20
217.351730
 30
0.0
 10
277.896730
 20
222.891730
 30
0.0
  0
LWPOLYLINE
  5
104
100
AcDbEntity
  8
Layer_1
 62
7
100
AcDbPolyline
 90
2
 70
0
 10
37.896910
 20
212.891830
 30
0.0
 10
267.896820
 20
212.891830
 30
0.0
  0
SPLINE
  5
105
100
AcDbEntity
  8
Layer_1
 62
7
100
AcDbSpline
 70
8
 71
3
 72
8
 73
4
 74
0
 40
0
 40
0
 40
0
 40
0
 40
1
 40
1
 40
1
 40
1
 10
277.896730
 20
352.891560
 30
0.0
 10
277.896730
 20
358.431560
 30
0.0
 10
273.436810
 20
362.891990
 30
0.0
 10
267.896820
 20
362.891990
 30
0.0
  0
LWPOLYLINE
  5
106
100
AcDbEntity
  8
Layer_1
 62
7
100
AcDbPolyline
 90
2
 70
0
 10
277.896730
 20
222.891730
 30
0.0
 10
277.896730
 20
352.891560
 30
0.0
  0
SPLINE
  5
107
100
AcDbEntity
  8
Layer_1
 62
7
100
AcDbSpline
 70
8
 71
3
 72
8
 73
4
 74
0
 40
0
 40
0
 40
0
 40
0
 40
1
 40
1
 40
1
 40
1
 10
120.131160
 20
357.904690
 30
0.0
 10
121.516160
 20
357.904690
 30
0.0
 10
122.631270
 20
356.789590
 30
0.0
 10
122.631270
 20
355.404590
 30
0.0
  0
SPLINE
  5
108
100
AcDbEntity
  8
Layer_1
 62
7
100
AcDbSpline
 70
8
 71
3
 72
8
 73
4
 74
0
 40
0
 40
0
 40
0
 40
0
 40
1
 40
1
 40
1
 40
1
 10
122.631270
 20
355.404590
 30
0.0
 10
122.631270
 20
354.019590
 30
0.0
 10
121.516160
 20
352.904480
 30
0.0
 10
120.131160
 20
352.904480
 30
0.0
  0
SPLINE
  5
109
100
AcDbEntity
  8
Layer_1
 62
7
100
AcDbSpline
 70
8
 71
3
 72
8
 73
4
 74
0
 40
0
 40
0
 40
0
 40
0
 40
1
 40
1
 40
1
 40
1
 10
120.131160
 20
352.904480
 30
0.0
 10
118.746160
 20
352.904480
 30
0.0
 10
117.631060
 20
354.019590
 30
0.0
 10
117.631060
 20
355.404590
 30
0.0
  0
SPLINE
  5
10a
100
AcDbEntity
  8
Layer_1
 62
7
100
AcDbSpline
 70
8
 71
3
 72
8
 73
4
 74
0
 40
0
 40
0
 40
0
 40
0
 40
1
 40
1
 40
1
 40
1
 10
117.631060
 20
355.404590
 30
0.0
 10
117.631060
 20
356.789590
 30
0.0
 10
118.746160
 20
357.904690
 30
0.0
 10
120.131160
 20
357.904690
 30
0.0
  0
LWPOLYLINE
  5
10b
100
AcDbEntity
  8
Layer_1
 62
7
100
AcDbPolyline
 90
2
 70
0
 10
267.896820
 20
362.891990
 30
0.0
 10
37.896910
 20
362.891990
 30
0.0
  0
SPLINE
  5
10c
100
AcDbEntity
  8
Layer_1
 62
7
100
AcDbSpline
 70
8
 71
3
 72
8
 73
4
 74
0
 40
0
 40
0
 40
0
 40
0
 40
1
 40
1
 40
1
 40
1
 10
167.190820
 20
357.904690
 30
0.0
 10
168.575820
 20
357.904690
 30
0.0
 10
169.690930
 20
356.789590
 30
0.0
 10
169.690930
 20
355.404590
 30
0.0
  0
SPLINE
  5
10d
100
AcDbEntity
  8
Layer_1
 62
7
100
AcDbSpline
 70
8
 71
3
 72
8
 73
4
 74
0
 40
0
 40
0
 40
0
 40
0
 40
1
 40
1
 40
1
 40
1
 10
169.690930
 20
355.404590
 30
0.0
 10
169.690930
 20
354.019590
 30
0.0
 10
168.575820
 20
352.904480
 30
0.0
 10
167.190820
 20
352.904480
 30
0.0
  0
SPLINE
  5
10e
100
AcDbEntity
  8
Layer_1
 62
7
100
AcDbSpline
 70
8
 71
3
 72
8
 73
4
 74
0
 40
0
 40
0
 40
0
 40
0
 40
1
 40
1
 40
1
 40
1
 10
167.190820
 20
352.904480
 30
0.0
 10
165.805820
 20
352.904480
 30
0.0
 10
164.690720
 20
354.019590
 30
0.0
 10
164.690720
 20
355.404590
 30
0.0
  0
SPLINE
  5
10f
100
AcDbEntity
  8
Layer_1
 62
7
100
AcDbSpline
 70
8
 71
3
 72
8
 73
4
 74
0
 40
0
 40
0
 40
0
 40
0
 40
1
 40
1
 40
1
 40
1
 10
164.690720
 20
355.404590
 30
0.0
 10
164.690720
 20
356.789590
 30
0.0
 10
165.805820
 20
357.904690
 30
0.0
 10
167.190820
 20
357.904690
 30
0.0
  0
LWPOLYLINE
  5
110
100
AcDbEntity
  8
Layer_1
 62
7
100
AcDbPolyline
 90
1
 70
1
 10
120.131160
 20
357.904690
 30
0.0
  0
SPLINE
  5
111
100
AcDbEntity
  8
Layer_1
 62
7
100
AcDbSpline
 70
8
 71
3
 72
8
 73
4
 74
0
 40
0
 40
0
 40
0
 40
0
 40
1
 40
1
 40
1
 40
1
 10
35.401970
 20
357.896690
 30
0.0
 10
36.065048
 20
357.896717
 30
0.0
 10
36.700975
 20
357.633321
 30
0.0
 10
37.169840
 20
357.164453
 30
0.0
  0
SPLINE
  5
112
100
AcDbEntity
  8
Layer_1
 62
7
100
AcDbSpline
 70
8
 71
3
 72
8
 73
4
 74
0
 40
0
 40
0
 40
0
 40
0
 40
1
 40
1
 40
1
 40
1
 10
37.169840
 20
357.164453
 30
0.0
 10
37.638706
 20
356.695586
 30
0.0
 10
37.902099
 20
356.059658
 30
0.0
 10
37.902070
 20
355.396580
 30
0.0
  0
SPLINE
  5
113
100
AcDbEntity
  8
Layer_1
 62
7
100
AcDbSpline
 70
8
 71
3
 72
8
 73
4
 74
0
 40
0
 40
0
 40
0
 40
0
 40
1
 40
1
 40
1
 40
1
 10
37.902070
 20
355.396580
 30
0.0
 10
37.899512
 20
355.073636
 30
0.0
 10
37.834405
 20
354.754247
 30
0.0
 10
37.710350
 20
354.456070
 30
0.0
  0
SPLINE
  5
114
100
AcDbEntity
  8
Layer_1
 62
7
100
AcDbSpline
 70
8
 71
3
 72
8
 73
4
 74
0
 40
0
 40
0
 40
0
 40
0
 40
1
 40
1
 40
1
 40
1
 10
37.710350
 20
354.456070
 30
0.0
 10
37.704133
 20
354.440841
 30
0.0
 10
37.697766
 20
354.425673
 30
0.0
 10
37.691250
 20
354.410570
 30
0.0
  0
SPLINE
  5
115
100
AcDbEntity
  8
Layer_1
 62
7
100
AcDbSpline
 70
8
 71
3
 72
8
 73
4
 74
0
 40
0
 40
0
 40
0
 40
0
 40
1
 40
1
 40
1
 40
1
 10
37.691250
 20
354.410570
 30
0.0
 10
37.567947
 20
354.118206
 30
0.0
 10
37.390115
 20
353.851987
 30
0.0
 10
37.167250
 20
353.626130
 30
0.0
  0
SPLINE
  5
116
100
AcDbEntity
  8
Layer_1
 62
7
100
AcDbSpline
 70
8
 71
3
 72
8
 73
4
 74
0
 40
0
 40
0
 40
0
 40
0
 40
1
 40
1
 40
1
 40
1
 10
37.167250
 20
353.626130
 30
0.0
 10
37.161406
 20
353.621103
 30
0.0
 10
37.155540
 20
353.616103
 30
0.0
 10
37.149650
 20
353.611130
 30
0.0
  0
SPLINE
  5
117
100
AcDbEntity
  8
Layer_1
 62
7
100
AcDbSpline
 70
8
 71
3
 72
8
 73
4
 74
0
 40
0
 40
0
 40
0
 40
0
 40
1
 40
1
 40
1
 40
1
 10
37.149650
 20
353.611130
 30
0.0
 10
36.933901
 20
353.402537
 30
0.0
 10
36.682359
 20
353.234493
 30
0.0
 10
36.407060
 20
353.115040
 30
0.0
  0
SPLINE
  5
118
100
AcDbEntity
  8
Layer_1
 62
7
100
AcDbSpline
 70
8
 71
3
 72
8
 73
4
 74
0
 40
0
 40
0
 40
0
 40
0
 40
1
 40
1
 40
1
 40
1
 10
36.407060
 20
353.115040
 30
0.0
 10
36.367532
 20
353.097472
 30
0.0
 10
36.327556
 20
353.080933
 30
0.0
 10
36.287170
 20
353.065440
 30
0.0
  0
SPLINE
  5
119
100
AcDbEntity
  8
Layer_1
 62
7
100
AcDbSpline
 70
8
 71
3
 72
8
 73
4
 74
0
 40
0
 40
0
 40
0
 40
0
 40
1
 40
1
 40
1
 40
1
 10
36.287170
 20
353.065440
 30
0.0
 10
36.022688
 20
352.964199
 30
0.0
 10
35.742927
 20
352.908631
 30
0.0
 10
35.459830
 20
352.901110
 30
0.0
  0
SPLINE
  5
11a
100
AcDbEntity
  8
Layer_1
 62
7
100
AcDbSpline
 70
8
 71
3
 72
8
 73
4
 74
0
 40
0
 40
0
 40
0
 40
0
 40
1
 40
1
 40
1
 40
1
 10
35.459830
 20
352.901110
 30
0.0
 10
35.438354
 20
352.896526
 30
0.0
 10
35.416819
 20
352.892226
 30
0.0
 10
35.395230
 20
352.888210
 30
0.0
  0
SPLINE
  5
11b
100
AcDbEntity
  8
Layer_1
 62
7
100
AcDbSpline
 70
8
 71
3
 72
8
 73
4
 74
0
 40
0
 40
0
 40
0
 40
0
 40
1
 40
1
 40
1
 40
1
 10
35.395230
 20
352.888210
 30
0.0
 10
34.732152
 20
352.888181
 30
0.0
 10
34.096224
 20
353.151574
 30
0.0
 10
33.627357
 20
353.620440
 30
0.0
  0
SPLINE
  5
11c
100
AcDbEntity
  8
Layer_1
 62
7
100
AcDbSpline
 70
8
 71
3
 72
8
 73
4
 74
0
 40
0
 40
0
 40
0
 40
0
 40
1
 40
1
 40
1
 40
1
 10
33.627357
 20
353.620440
 30
0.0
 10
33.158489
 20
354.089305
 30
0.0
 10
32.895093
 20
354.725232
 30
0.0
 10
32.895120
 20
355.388310
 30
0.0
  0
SPLINE
  5
11d
100
AcDbEntity
  8
Layer_1
 62
7
100
AcDbSpline
 70
8
 71
3
 72
8
 73
4
 74
0
 40
0
 40
0
 40
0
 40
0
 40
1
 40
1
 40
1
 40
1
 10
32.895120
 20
355.388310
 30
0.0
 10
32.895377
 20
356.052547
 30
0.0
 10
33.159964
 20
356.689375
 30
0.0
 10
33.630480
 20
357.158230
 30
0.0
  0
SPLINE
  5
11e
100
AcDbEntity
  8
Layer_1
 62
7
100
AcDbSpline
 70
8
 71
3
 72
8
 73
4
 74
0
 40
0
 40
0
 40
0
 40
0
 40
1
 40
1
 40
1
 40
1
 10
33.630480
 20
357.158230
 30
0.0
 10
34.099205
 20
357.630264
 30
0.0
 10
34.736729
 20
357.896024
 30
0.0
 10
35.401950
 20
357.896690
 30
0.0
  0
LWPOLYLINE
  5
11f
100
AcDbEntity
  8
Layer_1
 62
7
100
AcDbPolyline
 90
1
 70
1
 10
167.190820
 20
357.904690
 30
0.0
  0
SPLINE
  5
120
100
AcDbEntity
  8
Layer_1
 62
7
100
AcDbSpline
 70
8
 71
3
 72
8
 73
4
 74
0
 40
0
 40
0
 40
0
 40
0
 40
1
 40
1
 40
1
 40
1
 10
270.411390
 20
357.896690
 30
0.0
 10
271.074469
 20
357.896719
 30
0.0
 10
271.710399
 20
357.633325
 30
0.0
 10
272.179267
 20
357.164457
 30
0.0
  0
SPLINE
  5
121
100
AcDbEntity
  8
Layer_1
 62
7
100
AcDbSpline
 70
8
 71
3
 72
8
 73
4
 74
0
 40
0
 40
0
 40
0
 40
0
 40
1
 40
1
 40
1
 40
1
 10
272.179267
 20
357.164457
 30
0.0
 10
272.648135
 20
356.695589
 30
0.0
 10
272.911529
 20
356.059659
 30
0.0
 10
272.911500
 20
355.396580
 30
0.0
  0
SPLINE
  5
122
100
AcDbEntity
  8
Layer_1
 62
7
100
AcDbSpline
 70
8
 71
3
 72
8
 73
4
 74
0
 40
0
 40
0
 40
0
 40
0
 40
1
 40
1
 40
1
 40
1
 10
272.911500
 20
355.396580
 30
0.0
 10
272.908948
 20
355.072699
 30
0.0
 10
272.843485
 20
354.752399
 30
0.0
 10
272.718750
 20
354.453490
 30
0.0
  0
SPLINE
  5
123
100
AcDbEntity
  8
Layer_1
 62
7
100
AcDbSpline
 70
8
 71
3
 72
8
 73
4
 74
0
 40
0
 40
0
 40
0
 40
0
 40
1
 40
1
 40
1
 40
1
 10
272.718750
 20
354.453490
 30
0.0
 10
272.713173
 20
354.439673
 30
0.0
 10
272.707473
 20
354.425905
 30
0.0
 10
272.701650
 20
354.412190
 30
0.0
  0
SPLINE
  5
124
100
AcDbEntity
  8
Layer_1
 62
7
100
AcDbSpline
 70
8
 71
3
 72
8
 73
4
 74
0
 40
0
 40
0
 40
0
 40
0
 40
1
 40
1
 40
1
 40
1
 10
272.701650
 20
354.412190
 30
0.0
 10
272.578212
 20
354.119191
 30
0.0
 10
272.400017
 20
353.852428
 30
0.0
 10
272.176620
 20
353.626200
 30
0.0
  0
SPLINE
  5
125
100
AcDbEntity
  8
Layer_1
 62
7
100
AcDbSpline
 70
8
 71
3
 72
8
 73
4
 74
0
 40
0
 40
0
 40
0
 40
0
 40
1
 40
1
 40
1
 40
1
 10
272.176620
 20
353.626200
 30
0.0
 10
272.170776
 20
353.621173
 30
0.0
 10
272.164910
 20
353.616173
 30
0.0
 10
272.159020
 20
353.611200
 30
0.0
  0
SPLINE
  5
126
100
AcDbEntity
  8
Layer_1
 62
7
100
AcDbSpline
 70
8
 71
3
 72
8
 73
4
 74
0
 40
0
 40
0
 40
0
 40
0
 40
1
 40
1
 40
1
 40
1
 10
272.159020
 20
353.611200
 30
0.0
 10
271.943006
 20
353.402319
 30
0.0
 10
271.691104
 20
353.234092
 30
0.0
 10
271.415400
 20
353.114590
 30
0.0
  0
SPLINE
  5
127
100
AcDbEntity
  8
Layer_1
 62
7
100
AcDbSpline
 70
8
 71
3
 72
8
 73
4
 74
0
 40
0
 40
0
 40
0
 40
0
 40
1
 40
1
 40
1
 40
1
 10
271.415400
 20
353.114590
 30
0.0
 10
271.376208
 20
353.097207
 30
0.0
 10
271.336574
 20
353.080835
 30
0.0
 10
271.296540
 20
353.065490
 30
0.0
  0
SPLINE
  5
128
100
AcDbEntity
  8
Layer_1
 62
7
100
AcDbSpline
 70
8
 71
3
 72
8
 73
4
 74
0
 40
0
 40
0
 40
0
 40
0
 40
1
 40
1
 40
1
 40
1
 10
271.296540
 20
353.065490
 30
0.0
 10
271.032058
 20
352.964249
 30
0.0
 10
270.752297
 20
352.908681
 30
0.0
 10
270.469200
 20
352.901160
 30
0.0
  0
SPLINE
  5
129
100
AcDbEntity
  8
Layer_1
 62
7
100
AcDbSpline
 70
8
 71
3
 72
8
 73
4
 74
0
 40
0
 40
0
 40
0
 40
0
 40
1
 40
1
 40
1
 40
1
 10
270.469200
 20
352.901160
 30
0.0
 10
270.447724
 20
352.896576
 30
0.0
 10
270.426189
 20
352.892276
 30
0.0
 10
270.404600
 20
352.888260
 30
0.0
  0
SPLINE
  5
12a
100
AcDbEntity
  8
Layer_1
 62
7
100
AcDbSpline
 70
8
 71
3
 72
8
 73
4
 74
0
 40
0
 40
0
 40
0
 40
0
 40
1
 40
1
 40
1
 40
1
 10
270.404600
 20
352.888260
 30
0.0
 10
269.741522
 20
352.888231
 30
0.0
 10
269.105594
 20
353.151624
 30
0.0
 10
268.636727
 20
353.620490
 30
0.0
  0
SPLINE
  5
12b
100
AcDbEntity
  8
Layer_1
 62
7
100
AcDbSpline
 70
8
 71
3
 72
8
 73
4
 74
0
 40
0
 40
0
 40
0
 40
0
 40
1
 40
1
 40
1
 40
1
 10
268.636727
 20
353.620490
 30
0.0
 10
268.167859
 20
354.089355
 30
0.0
 10
267.904463
 20
354.725282
 30
0.0
 10
267.904490
 20
355.388360
 30
0.0
  0
SPLINE
  5
12c
100
AcDbEntity
  8
Layer_1
 62
7
100
AcDbSpline
 70
8
 71
3
 72
8
 73
4
 74
0
 40
0
 40
0
 40
0
 40
0
 40
1
 40
1
 40
1
 40
1
 10
267.904490
 20
355.388360
 30
0.0
 10
267.904610
 20
356.052267
 30
0.0
 10
268.168803
 20
356.688861
 30
0.0
 10
268.638810
 20
357.157760
 30
0.0
  0
SPLINE
  5
12d
100
AcDbEntity
  8
Layer_1
 62
7
100
AcDbSpline
 70
8
 71
3
 72
8
 73
4
 74
0
 40
0
 40
0
 40
0
 40
0
 40
1
 40
1
 40
1
 40
1
 10
268.638810
 20
357.157760
 30
0.0
 10
269.107701
 20
357.630237
 30
0.0
 10
269.745657
 20
357.896210
 30
0.0
 10
270.411310
 20
357.896740
 30
0.0
  0
LWPOLYLINE
  5
12e
100
AcDbEntity
  8
Layer_1
 62
7
100
AcDbPolyline
 90
1
 70
1
 10
35.401950
 20
357.896690
 30
0.0
  0
SPLINE
  5
12f
100
AcDbEntity
  8
Layer_1
 62
7
100
AcDbSpline
 70
8
 71
3
 72
8
 73
4
 74
0
 40
0
 40
0
 40
0
 40
0
 40
1
 40
1
 40
1
 40
1
 10
152.871800
 20
222.899730
 30
0.0
 10
154.256800
 20
222.899730
 30
0.0
 10
155.371910
 20
221.784630
 30
0.0
 10
155.371910
 20
220.399630
 30
0.0
  0
SPLINE
  5
130
100
AcDbEntity
  8
Layer_1
 62
7
100
AcDbSpline
 70
8
 71
3
 72
8
 73
4
 74
0
 40
0
 40
0
 40
0
 40
0
 40
1
 40
1
 40
1
 40
1
 10
155.371910
 20
220.399630
 30
0.0
 10
155.371910
 20
219.014630
 30
0.0
 10
154.256800
 20
217.900030
 30
0.0
 10
152.871800
 20
217.900030
 30
0.0
  0
SPLINE
  5
131
100
AcDbEntity
  8
Layer_1
 62
7
100
AcDbSpline
 70
8
 71
3
 72
8
 73
4
 74
0
 40
0
 40
0
 40
0
 40
0
 40
1
 40
1
 40
1
 40
1
 10
152.871800
 20
217.900030
 30
0.0
 10
151.486800
 20
217.900030
 30
0.0
 10
150.372210
 20
219.014630
 30
0.0
 10
150.372210
 20
220.399630
 30
0.0
  0
SPLINE
  5
132
100
AcDbEntity
  8
Layer_1
 62
7
100
AcDbSpline
 70
8
 71
3
 72
8
 73
4
 74
0
 40
0
 40
0
 40
0
 40
0
 40
1
 40
1
 40
1
 40
1
 10
150.372210
 20
220.399630
 30
0.0
 10
150.372210
 20
221.784630
 30
0.0
 10
151.486800
 20
222.899730
 30
0.0
 10
152.871800
 20
222.899730
 30
0.0
  0
LWPOLYLINE
  5
133
100
AcDbEntity
  8
Layer_1
 62
7
100
AcDbPolyline
 90
1
 70
1
 10
270.411310
 20
357.896740
 30
0.0
  0
SPLINE
  5
134
100
AcDbEntity
  8
Layer_1
 62
7
100
AcDbSpline
 70
8
 71
3
 72
8
 73
4
 74
0
 40
0
 40
0
 40
0
 40
0
 40
1
 40
1
 40
1
 40
1
 10
35.401970
 20
222.889730
 30
0.0
 10
36.065046
 20
222.889757
 30
0.0
 10
36.700972
 20
222.626362
 30
0.0
 10
37.169837
 20
222.157497
 30
0.0
  0
SPLINE
  5
135
100
AcDbEntity
  8
Layer_1
 62
7
100
AcDbSpline
 70
8
 71
3
 72
8
 73
4
 74
0
 40
0
 40
0
 40
0
 40
0
 40
1
 40
1
 40
1
 40
1
 10
37.169837
 20
222.157497
 30
0.0
 10
37.638702
 20
221.688632
 30
0.0
 10
37.902097
 20
221.052706
 30
0.0
 10
37.902070
 20
220.389630
 30
0.0
  0
SPLINE
  5
136
100
AcDbEntity
  8
Layer_1
 62
7
100
AcDbSpline
 70
8
 71
3
 72
8
 73
4
 74
0
 40
0
 40
0
 40
0
 40
0
 40
1
 40
1
 40
1
 40
1
 10
37.902070
 20
220.389630
 30
0.0
 10
37.899510
 20
220.066690
 30
0.0
 10
37.834404
 20
219.747304
 30
0.0
 10
37.710350
 20
219.449130
 30
0.0
  0
SPLINE
  5
137
100
AcDbEntity
  8
Layer_1
 62
7
100
AcDbSpline
 70
8
 71
3
 72
8
 73
4
 74
0
 40
0
 40
0
 40
0
 40
0
 40
1
 40
1
 40
1
 40
1
 10
37.710350
 20
219.449130
 30
0.0
 10
37.704136
 20
219.433734
 30
0.0
 10
37.697769
 20
219.418400
 30
0.0
 10
37.691250
 20
219.403130
 30
0.0
  0
SPLINE
  5
138
100
AcDbEntity
  8
Layer_1
 62
7
100
AcDbSpline
 70
8
 71
3
 72
8
 73
4
 74
0
 40
0
 40
0
 40
0
 40
0
 40
1
 40
1
 40
1
 40
1
 10
37.691250
 20
219.403130
 30
0.0
 10
37.567942
 20
219.110780
 30
0.0
 10
37.390111
 20
218.844576
 30
0.0
 10
37.167250
 20
218.618730
 30
0.0
  0
SPLINE
  5
139
100
AcDbEntity
  8
Layer_1
 62
7
100
AcDbSpline
 70
8
 71
3
 72
8
 73
4
 74
0
 40
0
 40
0
 40
0
 40
0
 40
1
 40
1
 40
1
 40
1
 10
37.167250
 20
218.618730
 30
0.0
 10
37.161406
 20
218.613703
 30
0.0
 10
37.155540
 20
218.608703
 30
0.0
 10
37.149650
 20
218.603730
 30
0.0
  0
SPLINE
  5
13a
100
AcDbEntity
  8
Layer_1
 62
7
100
AcDbSpline
 70
8
 71
3
 72
8
 73
4
 74
0
 40
0
 40
0
 40
0
 40
0
 40
1
 40
1
 40
1
 40
1
 10
37.149650
 20
218.603730
 30
0.0
 10
36.933902
 20
218.395134
 30
0.0
 10
36.682360
 20
218.227086
 30
0.0
 10
36.407060
 20
218.107630
 30
0.0
  0
SPLINE
  5
13b
100
AcDbEntity
  8
Layer_1
 62
7
100
AcDbSpline
 70
8
 71
3
 72
8
 73
4
 74
0
 40
0
 40
0
 40
0
 40
0
 40
1
 40
1
 40
1
 40
1
 10
36.407060
 20
218.107630
 30
0.0
 10
36.367536
 20
218.089928
 30
0.0
 10
36.327560
 20
218.073255
 30
0.0
 10
36.287170
 20
218.057630
 30
0.0
  0
SPLINE
  5
13c
100
AcDbEntity
  8
Layer_1
 62
7
100
AcDbSpline
 70
8
 71
3
 72
8
 73
4
 74
0
 40
0
 40
0
 40
0
 40
0
 40
1
 40
1
 40
1
 40
1
 10
36.287170
 20
218.057630
 30
0.0
 10
36.022692
 20
217.956365
 30
0.0
 10
35.742931
 20
217.900774
 30
0.0
 10
35.459830
 20
217.893230
 30
0.0
  0
SPLINE
  5
13d
100
AcDbEntity
  8
Layer_1
 62
7
100
AcDbSpline
 70
8
 71
3
 72
8
 73
4
 74
0
 40
0
 40
0
 40
0
 40
0
 40
1
 40
1
 40
1
 40
1
 10
35.459830
 20
217.893230
 30
0.0
 10
35.438355
 20
217.888613
 30
0.0
 10
35.416820
 20
217.884279
 30
0.0
 10
35.395230
 20
217.880230
 30
0.0
  0
SPLINE
  5
13e
100
AcDbEntity
  8
Layer_1
 62
7
100
AcDbSpline
 70
8
 71
3
 72
8
 73
4
 74
0
 40
0
 40
0
 40
0
 40
0
 40
1
 40
1
 40
1
 40
1
 10
35.395230
 20
217.880230
 30
0.0
 10
34.732135
 20
217.880201
 30
0.0
 10
34.096192
 20
218.143607
 30
0.0
 10
33.627321
 20
218.612495
 30
0.0
  0
SPLINE
  5
13f
100
AcDbEntity
  8
Layer_1
 62
7
100
AcDbSpline
 70
8
 71
3
 72
8
 73
4
 74
0
 40
0
 40
0
 40
0
 40
0
 40
1
 40
1
 40
1
 40
1
 10
33.627321
 20
218.612495
 30
0.0
 10
33.158451
 20
219.081382
 30
0.0
 10
32.895067
 20
219.717335
 30
0.0
 10
32.895120
 20
220.380430
 30
0.0
  0
SPLINE
  5
140
100
AcDbEntity
  8
Layer_1
 62
7
100
AcDbSpline
 70
8
 71
3
 72
8
 73
4
 74
0
 40
0
 40
0
 40
0
 40
0
 40
1
 40
1
 40
1
 40
1
 10
32.895120
 20
220.380430
 30
0.0
 10
32.895383
 20
221.044660
 30
0.0
 10
33.159969
 20
221.681479
 30
0.0
 10
33.630480
 20
222.150330
 30
0.0
  0
SPLINE
  5
141
100
AcDbEntity
  8
Layer_1
 62
7
100
AcDbSpline
 70
8
 71
3
 72
8
 73
4
 74
0
 40
0
 40
0
 40
0
 40
0
 40
1
 40
1
 40
1
 40
1
 10
33.630480
 20
222.150330
 30
0.0
 10
34.099215
 20
222.622342
 30
0.0
 10
34.736738
 20
222.888080
 30
0.0
 10
35.401950
 20
222.888730
 30
0.0
  0
LWPOLYLINE
  5
142
100
AcDbEntity
  8
Layer_1
 62
7
100
AcDbPolyline
 90
1
 70
1
 10
152.871800
 20
222.899730
 30
0.0
  0
SPLINE
  5
143
100
AcDbEntity
  8
Layer_1
 62
7
100
AcDbSpline
 70
8
 71
3
 72
8
 73
4
 74
0
 40
0
 40
0
 40
0
 40
0
 40
1
 40
1
 40
1
 40
1
 10
270.378320
 20
222.889730
 30
0.0
 10
271.041398
 20
222.889759
 30
0.0
 10
271.677326
 20
222.626366
 30
0.0
 10
272.146193
 20
222.157500
 30
0.0
  0
SPLINE
  5
144
100
AcDbEntity
  8
Layer_1
 62
7
100
AcDbSpline
 70
8
 71
3
 72
8
 73
4
 74
0
 40
0
 40
0
 40
0
 40
0
 40
1
 40
1
 40
1
 40
1
 10
272.146193
 20
222.157500
 30
0.0
 10
272.615061
 20
221.688635
 30
0.0
 10
272.878457
 20
221.052708
 30
0.0
 10
272.878430
 20
220.389630
 30
0.0
  0
SPLINE
  5
145
100
AcDbEntity
  8
Layer_1
 62
7
100
AcDbSpline
 70
8
 71
3
 72
8
 73
4
 74
0
 40
0
 40
0
 40
0
 40
0
 40
1
 40
1
 40
1
 40
1
 10
272.878430
 20
220.389630
 30
0.0
 10
272.875876
 20
220.065745
 30
0.0
 10
272.810410
 20
219.745442
 30
0.0
 10
272.685670
 20
219.446530
 30
0.0
  0
SPLINE
  5
146
100
AcDbEntity
  8
Layer_1
 62
7
100
AcDbSpline
 70
8
 71
3
 72
8
 73
4
 74
0
 40
0
 40
0
 40
0
 40
0
 40
1
 40
1
 40
1
 40
1
 10
272.685670
 20
219.446530
 30
0.0
 10
272.680092
 20
219.432813
 30
0.0
 10
272.674391
 20
219.419146
 30
0.0
 10
272.668570
 20
219.405530
 30
0.0
  0
SPLINE
  5
147
100
AcDbEntity
  8
Layer_1
 62
7
100
AcDbSpline
 70
8
 71
3
 72
8
 73
4
 74
0
 40
0
 40
0
 40
0
 40
0
 40
1
 40
1
 40
1
 40
1
 10
272.668570
 20
219.405530
 30
0.0
 10
272.545133
 20
219.112528
 30
0.0
 10
272.366938
 20
218.845761
 30
0.0
 10
272.143540
 20
218.619530
 30
0.0
  0
SPLINE
  5
148
100
AcDbEntity
  8
Layer_1
 62
7
100
AcDbSpline
 70
8
 71
3
 72
8
 73
4
 74
0
 40
0
 40
0
 40
0
 40
0
 40
1
 40
1
 40
1
 40
1
 10
272.143540
 20
218.619530
 30
0.0
 10
272.137696
 20
218.614503
 30
0.0
 10
272.131830
 20
218.609503
 30
0.0
 10
272.125940
 20
218.604530
 30
0.0
  0
SPLINE
  5
149
100
AcDbEntity
  8
Layer_1
 62
7
100
AcDbSpline
 70
8
 71
3
 72
8
 73
4
 74
0
 40
0
 40
0
 40
0
 40
0
 40
1
 40
1
 40
1
 40
1
 10
272.125940
 20
218.604530
 30
0.0
 10
271.909925
 20
218.395652
 30
0.0
 10
271.658023
 20
218.227429
 30
0.0
 10
271.382320
 20
218.107930
 30
0.0
  0
SPLINE
  5
14a
100
AcDbEntity
  8
Layer_1
 62
7
100
AcDbSpline
 70
8
 71
3
 72
8
 73
4
 74
0
 40
0
 40
0
 40
0
 40
0
 40
1
 40
1
 40
1
 40
1
 10
271.382320
 20
218.107930
 30
0.0
 10
271.343127
 20
218.090580
 30
0.0
 10
271.303493
 20
218.074242
 30
0.0
 10
271.263460
 20
218.058930
 30
0.0
  0
SPLINE
  5
14b
100
AcDbEntity
  8
Layer_1
 62
7
100
AcDbSpline
 70
8
 71
3
 72
8
 73
4
 74
0
 40
0
 40
0
 40
0
 40
0
 40
1
 40
1
 40
1
 40
1
 10
271.263460
 20
218.058930
 30
0.0
 10
270.998976
 20
217.957699
 30
0.0
 10
270.719215
 20
217.902142
 30
0.0
 10
270.436120
 20
217.894630
 30
0.0
  0
SPLINE
  5
14c
100
AcDbEntity
  8
Layer_1
 62
7
100
AcDbSpline
 70
8
 71
3
 72
8
 73
4
 74
0
 40
0
 40
0
 40
0
 40
0
 40
1
 40
1
 40
1
 40
1
 10
270.436120
 20
217.894630
 30
0.0
 10
270.414645
 20
217.890013
 30
0.0
 10
270.393110
 20
217.885679
 30
0.0
 10
270.371520
 20
217.881630
 30
0.0
  0
SPLINE
  5
14d
100
AcDbEntity
  8
Layer_1
 62
7
100
AcDbSpline
 70
8
 71
3
 72
8
 73
4
 74
0
 40
0
 40
0
 40
0
 40
0
 40
1
 40
1
 40
1
 40
1
 10
270.371520
 20
217.881630
 30
0.0
 10
269.708444
 20
217.881603
 30
0.0
 10
269.072518
 20
218.144998
 30
0.0
 10
268.603653
 20
218.613863
 30
0.0
  0
SPLINE
  5
14e
100
AcDbEntity
  8
Layer_1
 62
7
100
AcDbSpline
 70
8
 71
3
 72
8
 73
4
 74
0
 40
0
 40
0
 40
0
 40
0
 40
1
 40
1
 40
1
 40
1
 10
268.603653
 20
218.613863
 30
0.0
 10
268.134788
 20
219.082728
 30
0.0
 10
267.871393
 20
219.718654
 30
0.0
 10
267.871420
 20
220.381730
 30
0.0
  0
SPLINE
  5
14f
100
AcDbEntity
  8
Layer_1
 62
7
100
AcDbSpline
 70
8
 71
3
 72
8
 73
4
 74
0
 40
0
 40
0
 40
0
 40
0
 40
1
 40
1
 40
1
 40
1
 10
267.871420
 20
220.381730
 30
0.0
 10
267.871540
 20
221.045637
 30
0.0
 10
268.135733
 20
221.682231
 30
0.0
 10
268.605740
 20
222.151130
 30
0.0
  0
SPLINE
  5
150
100
AcDbEntity
  8
Layer_1
 62
7
100
AcDbSpline
 70
8
 71
3
 72
8
 73
4
 74
0
 40
0
 40
0
 40
0
 40
0
 40
1
 40
1
 40
1
 40
1
 10
268.605740
 20
222.151130
 30
0.0
 10
269.074628
 20
222.623615
 30
0.0
 10
269.712584
 20
222.889595
 30
0.0
 10
270.378240
 20
222.890130
 30
0.0
  0
LWPOLYLINE
  5
151
100
AcDbEntity
  8
Layer_1
 62
7
100
AcDbPolyline
 90
2
 70
0
 10
35.401950
 20
222.888730
 30
0.0
 10
35.401970
 20
222.889730
 30
0.0
  0
SPLINE
  5
152
100
AcDbEntity
  8
Layer_1
 62
7
100
AcDbSpline
 70
8
 71
3
 72
8
 73
4
 74
0
 40
0
 40
0
 40
0
 40
0
 40
1
 40
1
 40
1
 40
1
 10
295.876350
 20
365.112780
 30
0.0
 10
290.336370
 20
365.112780
 30
0.0
 10
285.876450
 20
360.652350
 30
0.0
 10
285.876450
 20
355.112350
 30
0.0
  0
LWPOLYLINE
  5
153
100
AcDbEntity
  8
Layer_1
 62
7
100
AcDbPolyline
 90
2
 70
0
 10
270.378240
 20
222.890130
 30
0.0
 10
270.378320
 20
222.889730
 30
0.0
  0
SPLINE
  5
154
100
AcDbEntity
  8
Layer_1
 62
7
100
AcDbSpline
 70
8
 71
3
 72
8
 73
4
 74
0
 40
0
 40
0
 40
0
 40
0
 40
1
 40
1
 40
1
 40
1
 10
285.876450
 20
225.112540
 30
0.0
 10
285.876450
 20
219.572540
 30
0.0
 10
290.336370
 20
215.112630
 30
0.0
 10
295.876350
 20
215.112630
 30
0.0
  0
LWPOLYLINE
  5
155
100
AcDbEntity
  8
Layer_1
 62
7
100
AcDbPolyline
 90
2
 70
0
 10
285.876450
 20
355.112350
 30
0.0
 10
285.876450
 20
225.112540
 30
0.0
  0
SPLINE
  5
156
100
AcDbEntity
  8
Layer_1
 62
7
100
AcDbSpline
 70
8
 71
3
 72
8
 73
4
 74
0
 40
0
 40
0
 40
0
 40
0
 40
1
 40
1
 40
1
 40
1
 10
525.876270
 20
215.112630
 30
0.0
 10
531.416250
 20
215.112630
 30
0.0
 10
535.876170
 20
219.572540
 30
0.0
 10
535.876170
 20
225.112540
 30
0.0
  0
LWPOLYLINE
  5
157
100
AcDbEntity
  8
Layer_1
 62
7
100
AcDbPolyline
 90
2
 70
0
 10
295.876350
 20
215.112630
 30
0.0
 10
525.876270
 20
215.112630
 30
0.0
  0
SPLINE
  5
158
100
AcDbEntity
  8
Layer_1
 62
7
100
AcDbSpline
 70
8
 71
3
 72
8
 73
4
 74
0
 40
0
 40
0
 40
0
 40
0
 40
1
 40
1
 40
1
 40
1
 10
535.876170
 20
355.112350
 30
0.0
 10
535.876170
 20
360.652350
 30
0.0
 10
531.416250
 20
365.112780
 30
0.0
 10
525.876270
 20
365.112780
 30
0.0
  0
LWPOLYLINE
  5
159
100
AcDbEntity
  8
Layer_1
 62
7
100
AcDbPolyline
 90
2
 70
0
 10
535.876170
 20
225.112540
 30
0.0
 10
535.876170
 20
355.112350
 30
0.0
  0
SPLINE
  5
15a
100
AcDbEntity
  8
Layer_1
 62
7
100
AcDbSpline
 70
8
 71
3
 72
8
 73
4
 74
0
 40
0
 40
0
 40
0
 40
0
 40
1
 40
1
 40
1
 40
1
 10
497.838700
 20
352.831870
 30
0.0
 10
498.946700
 20
352.831870
 30
0.0
 10
499.839100
 20
351.939990
 30
0.0
 10
499.839100
 20
350.832000
 30
0.0
  0
LWPOLYLINE
  5
15b
100
AcDbEntity
  8
Layer_1
 62
7
100
AcDbPolyline
 90
4
 70
0
 10
525.876270
 20
365.112780
 30
0.0
 10
409.109750
 20
365.112780
 30
0.0
 10
409.109750
 20
352.831870
 30
0.0
 10
497.838700
 20
352.831870
 30
0.0
  0
SPLINE
  5
15c
100
AcDbEntity
  8
Layer_1
 62
7
100
AcDbSpline
 70
8
 71
3
 72
8
 73
4
 74
0
 40
0
 40
0
 40
0
 40
0
 40
1
 40
1
 40
1
 40
1
 10
499.839100
 20
265.832020
 30
0.0
 10
499.839100
 20
264.724020
 30
0.0
 10
498.946700
 20
263.832140
 30
0.0
 10
497.838700
 20
263.832140
 30
0.0
  0
LWPOLYLINE
  5
15d
100
AcDbEntity
  8
Layer_1
 62
7
100
AcDbPolyline
 90
2
 70
0
 10
499.839100
 20
350.832000
 30
0.0
 10
499.839100
 20
265.832020
 30
0.0
  0
SPLINE
  5
15e
100
AcDbEntity
  8
Layer_1
 62
7
100
AcDbSpline
 70
8
 71
3
 72
8
 73
4
 74
0
 40
0
 40
0
 40
0
 40
0
 40
1
 40
1
 40
1
 40
1
 10
323.838990
 20
263.832140
 30
0.0
 10
322.730990
 20
263.832140
 30
0.0
 10
321.839110
 20
264.724020
 30
0.0
 10
321.839110
 20
265.832020
 30
0.0
  0
LWPOLYLINE
  5
15f
100
AcDbEntity
  8
Layer_1
 62
7
100
AcDbPolyline
 90
2
 70
0
 10
497.838700
 20
263.832140
 30
0.0
 10
323.838990
 20
263.832140
 30
0.0
  0
SPLINE
  5
160
100
AcDbEntity
  8
Layer_1
 62
7
100
AcDbSpline
 70
8
 71
3
 72
8
 73
4
 74
0
 40
0
 40
0
 40
0
 40
0
 40
1
 40
1
 40
1
 40
1
 10
321.839110
 20
350.832000
 30
0.0
 10
321.839110
 20
351.939990
 30
0.0
 10
322.730990
 20
352.831870
 30
0.0
 10
323.838990
 20
352.831870
 30
0.0
  0
LWPOLYLINE
  5
161
100
AcDbEntity
  8
Layer_1
 62
7
100
AcDbPolyline
 90
2
 70
0
 10
321.839110
 20
265.832020
 30
0.0
 10
321.839110
 20
350.832000
 30
0.0
  0
SPLINE
  5
162
100
AcDbEntity
  8
Layer_1
 62
7
100
AcDbSpline
 70
8
 71
3
 72
8
 73
4
 74
0
 40
0
 40
0
 40
0
 40
0
 40
1
 40
1
 40
1
 40
1
 10
378.110610
 20
360.125480
 30
0.0
 10
379.495610
 20
360.125480
 30
0.0
 10
380.610710
 20
359.010380
 30
0.0
 10
380.610710
 20
357.625380
 30
0.0
  0
SPLINE
  5
163
100
AcDbEntity
  8
Layer_1
 62
7
100
AcDbSpline
 70
8
 71
3
 72
8
 73
4
 74
0
 40
0
 40
0
 40
0
 40
0
 40
1
 40
1
 40
1
 40
1
 10
380.610710
 20
357.625380
 30
0.0
 10
380.610710
 20
356.240380
 30
0.0
 10
379.495610
 20
355.125270
 30
0.0
 10
378.110610
 20
355.125270
 30
0.0
  0
SPLINE
  5
164
100
AcDbEntity
  8
Layer_1
 62
7
100
AcDbSpline
 70
8
 71
3
 72
8
 73
4
 74
0
 40
0
 40
0
 40
0
 40
0
 40
1
 40
1
 40
1
 40
1
 10
378.110610
 20
355.125270
 30
0.0
 10
376.725610
 20
355.125270
 30
0.0
 10
375.610500
 20
356.240380
 30
0.0
 10
375.610500
 20
357.625380
 30
0.0
  0
SPLINE
  5
165
100
AcDbEntity
  8
Layer_1
 62
7
100
AcDbSpline
 70
8
 71
3
 72
8
 73
4
 74
0
 40
0
 40
0
 40
0
 40
0
 40
1
 40
1
 40
1
 40
1
 10
375.610500
 20
357.625380
 30
0.0
 10
375.610500
 20
359.010380
 30
0.0
 10
376.725610
 20
360.125480
 30
0.0
 10
378.110610
 20
360.125480
 30
0.0
  0
LWPOLYLINE
  5
166
100
AcDbEntity
  8
Layer_1
 62
7
100
AcDbPolyline
 90
4
 70
0
 10
323.838990
 20
352.831870
 30
0.0
 10
394.109630
 20
352.831870
 30
0.0
 10
394.109630
 20
365.112780
 30
0.0
 10
295.876350
 20
365.112780
 30
0.0
  0
SPLINE
  5
167
100
AcDbEntity
  8
Layer_1
 62
7
100
AcDbSpline
 70
8
 71
3
 72
8
 73
4
 74
0
 40
0
 40
0
 40
0
 40
0
 40
1
 40
1
 40
1
 40
1
 10
425.170270
 20
360.125480
 30
0.0
 10
426.555270
 20
360.125480
 30
0.0
 10
427.670370
 20
359.010380
 30
0.0
 10
427.670370
 20
357.625380
 30
0.0
  0
SPLINE
  5
168
100
AcDbEntity
  8
Layer_1
 62
7
100
AcDbSpline
 70
8
 71
3
 72
8
 73
4
 74
0
 40
0
 40
0
 40
0
 40
0
 40
1
 40
1
 40
1
 40
1
 10
427.670370
 20
357.625380
 30
0.0
 10
427.670370
 20
356.240380
 30
0.0
 10
426.555270
 20
355.125270
 30
0.0
 10
425.170270
 20
355.125270
 30
0.0
  0
SPLINE
  5
169
100
AcDbEntity
  8
Layer_1
 62
7
100
AcDbSpline
 70
8
 71
3
 72
8
 73
4
 74
0
 40
0
 40
0
 40
0
 40
0
 40
1
 40
1
 40
1
 40
1
 10
425.170270
 20
355.125270
 30
0.0
 10
423.785270
 20
355.125270
 30
0.0
 10
422.670160
 20
356.240380
 30
0.0
 10
422.670160
 20
357.625380
 30
0.0
  0
SPLINE
  5
16a
100
AcDbEntity
  8
Layer_1
 62
7
100
AcDbSpline
 70
8
 71
3
 72
8
 73
4
 74
0
 40
0
 40
0
 40
0
 40
0
 40
1
 40
1
 40
1
 40
1
 10
422.670160
 20
357.625380
 30
0.0
 10
422.670160
 20
359.010380
 30
0.0
 10
423.785270
 20
360.125480
 30
0.0
 10
425.170270
 20
360.125480
 30
0.0
  0
LWPOLYLINE
  5
16b
100
AcDbEntity
  8
Layer_1
 62
7
100
AcDbPolyline
 90
1
 70
1
 10
378.110610
 20
360.125480
 30
0.0
  0
SPLINE
  5
16c
100
AcDbEntity
  8
Layer_1
 62
7
100
AcDbSpline
 70
8
 71
3
 72
8
 73
4
 74
0
 40
0
 40
0
 40
0
 40
0
 40
1
 40
1
 40
1
 40
1
 10
293.381410
 20
360.117480
 30
0.0
 10
294.044488
 20
360.117509
 30
0.0
 10
294.680416
 20
359.854116
 30
0.0
 10
295.149283
 20
359.385250
 30
0.0
  0
SPLINE
  5
16d
100
AcDbEntity
  8
Layer_1
 62
7
100
AcDbSpline
 70
8
 71
3
 72
8
 73
4
 74
0
 40
0
 40
0
 40
0
 40
0
 40
1
 40
1
 40
1
 40
1
 10
295.149283
 20
359.385250
 30
0.0
 10
295.618151
 20
358.916385
 30
0.0
 10
295.881547
 20
358.280458
 30
0.0
 10
295.881520
 20
357.617380
 30
0.0
  0
SPLINE
  5
16e
100
AcDbEntity
  8
Layer_1
 62
7
100
AcDbSpline
 70
8
 71
3
 72
8
 73
4
 74
0
 40
0
 40
0
 40
0
 40
0
 40
1
 40
1
 40
1
 40
1
 10
295.881520
 20
357.617380
 30
0.0
 10
295.878962
 20
357.294436
 30
0.0
 10
295.813855
 20
356.975047
 30
0.0
 10
295.689800
 20
356.676870
 30
0.0
  0
SPLINE
  5
16f
100
AcDbEntity
  8
Layer_1
 62
7
100
AcDbSpline
 70
8
 71
3
 72
8
 73
4
 74
0
 40
0
 40
0
 40
0
 40
0
 40
1
 40
1
 40
1
 40
1
 10
295.689800
 20
356.676870
 30
0.0
 10
295.683586
 20
356.661474
 30
0.0
 10
295.677219
 20
356.646140
 30
0.0
 10
295.670700
 20
356.630870
 30
0.0
  0
SPLINE
  5
170
100
AcDbEntity
  8
Layer_1
 62
7
100
AcDbSpline
 70
8
 71
3
 72
8
 73
4
 74
0
 40
0
 40
0
 40
0
 40
0
 40
1
 40
1
 40
1
 40
1
 10
295.670700
 20
356.630870
 30
0.0
 10
295.547397
 20
356.338506
 30
0.0
 10
295.369565
 20
356.072287
 30
0.0
 10
295.146700
 20
355.846430
 30
0.0
  0
SPLINE
  5
171
100
AcDbEntity
  8
Layer_1
 62
7
100
AcDbSpline
 70
8
 71
3
 72
8
 73
4
 74
0
 40
0
 40
0
 40
0
 40
0
 40
1
 40
1
 40
1
 40
1
 10
295.146700
 20
355.846430
 30
0.0
 10
295.140856
 20
355.841403
 30
0.0
 10
295.134990
 20
355.836403
 30
0.0
 10
295.129100
 20
355.831430
 30
0.0
  0
SPLINE
  5
172
100
AcDbEntity
  8
Layer_1
 62
7
100
AcDbSpline
 70
8
 71
3
 72
8
 73
4
 74
0
 40
0
 40
0
 40
0
 40
0
 40
1
 40
1
 40
1
 40
1
 10
295.129100
 20
355.831430
 30
0.0
 10
294.913351
 20
355.622837
 30
0.0
 10
294.661809
 20
355.454793
 30
0.0
 10
294.386510
 20
355.335340
 30
0.0
  0
SPLINE
  5
173
100
AcDbEntity
  8
Layer_1
 62
7
100
AcDbSpline
 70
8
 71
3
 72
8
 73
4
 74
0
 40
0
 40
0
 40
0
 40
0
 40
1
 40
1
 40
1
 40
1
 10
294.386510
 20
355.335340
 30
0.0
 10
294.346982
 20
355.317772
 30
0.0
 10
294.307006
 20
355.301233
 30
0.0
 10
294.266620
 20
355.285740
 30
0.0
  0
SPLINE
  5
174
100
AcDbEntity
  8
Layer_1
 62
7
100
AcDbSpline
 70
8
 71
3
 72
8
 73
4
 74
0
 40
0
 40
0
 40
0
 40
0
 40
1
 40
1
 40
1
 40
1
 10
294.266620
 20
355.285740
 30
0.0
 10
294.002138
 20
355.184499
 30
0.0
 10
293.722377
 20
355.128931
 30
0.0
 10
293.439280
 20
355.121410
 30
0.0
  0
SPLINE
  5
175
100
AcDbEntity
  8
Layer_1
 62
7
100
AcDbSpline
 70
8
 71
3
 72
8
 73
4
 74
0
 40
0
 40
0
 40
0
 40
0
 40
1
 40
1
 40
1
 40
1
 10
293.439280
 20
355.121410
 30
0.0
 10
293.417802
 20
355.116994
 30
0.0
 10
293.396267
 20
355.112860
 30
0.0
 10
293.374680
 20
355.109010
 30
0.0
  0
SPLINE
  5
176
100
AcDbEntity
  8
Layer_1
 62
7
100
AcDbSpline
 70
8
 71
3
 72
8
 73
4
 74
0
 40
0
 40
0
 40
0
 40
0
 40
1
 40
1
 40
1
 40
1
 10
293.374680
 20
355.109010
 30
0.0
 10
291.994085
 20
355.108949
 30
0.0
 10
290.874796
 20
356.228005
 30
0.0
 10
290.874570
 20
357.608600
 30
0.0
  0
SPLINE
  5
177
100
AcDbEntity
  8
Layer_1
 62
7
100
AcDbSpline
 70
8
 71
3
 72
8
 73
4
 74
0
 40
0
 40
0
 40
0
 40
0
 40
1
 40
1
 40
1
 40
1
 10
290.874570
 20
357.608600
 30
0.0
 10
290.874689
 20
358.273017
 30
0.0
 10
291.139287
 20
358.910057
 30
0.0
 10
291.609930
 20
359.379040
 30
0.0
  0
SPLINE
  5
178
100
AcDbEntity
  8
Layer_1
 62
7
100
AcDbSpline
 70
8
 71
3
 72
8
 73
4
 74
0
 40
0
 40
0
 40
0
 40
0
 40
1
 40
1
 40
1
 40
1
 10
291.609930
 20
359.379040
 30
0.0
 10
292.078654
 20
359.851067
 30
0.0
 10
292.716174
 20
360.116824
 30
0.0
 10
293.381390
 20
360.117490
 30
0.0
  0
LWPOLYLINE
  5
179
100
AcDbEntity
  8
Layer_1
 62
7
100
AcDbPolyline
 90
1
 70
1
 10
425.170270
 20
360.125480
 30
0.0
  0
SPLINE
  5
17a
100
AcDbEntity
  8
Layer_1
 62
7
100
AcDbSpline
 70
8
 71
3
 72
8
 73
4
 74
0
 40
0
 40
0
 40
0
 40
0
 40
1
 40
1
 40
1
 40
1
 10
528.390840
 20
360.117480
 30
0.0
 10
529.053918
 20
360.117509
 30
0.0
 10
529.689846
 20
359.854116
 30
0.0
 10
530.158713
 20
359.385250
 30
0.0
  0
SPLINE
  5
17b
100
AcDbEntity
  8
Layer_1
 62
7
100
AcDbSpline
 70
8
 71
3
 72
8
 73
4
 74
0
 40
0
 40
0
 40
0
 40
0
 40
1
 40
1
 40
1
 40
1
 10
530.158713
 20
359.385250
 30
0.0
 10
530.627581
 20
358.916385
 30
0.0
 10
530.890977
 20
358.280458
 30
0.0
 10
530.890950
 20
357.617380
 30
0.0
  0
SPLINE
  5
17c
100
AcDbEntity
  8
Layer_1
 62
7
100
AcDbSpline
 70
8
 71
3
 72
8
 73
4
 74
0
 40
0
 40
0
 40
0
 40
0
 40
1
 40
1
 40
1
 40
1
 10
530.890950
 20
357.617380
 30
0.0
 10
530.888396
 20
357.293495
 30
0.0
 10
530.822930
 20
356.973192
 30
0.0
 10
530.698190
 20
356.674280
 30
0.0
  0
SPLINE
  5
17d
100
AcDbEntity
  8
Layer_1
 62
7
100
AcDbSpline
 70
8
 71
3
 72
8
 73
4
 74
0
 40
0
 40
0
 40
0
 40
0
 40
1
 40
1
 40
1
 40
1
 10
530.698190
 20
356.674280
 30
0.0
 10
530.692646
 20
356.660463
 30
0.0
 10
530.686980
 20
356.646696
 30
0.0
 10
530.681190
 20
356.632980
 30
0.0
  0
SPLINE
  5
17e
100
AcDbEntity
  8
Layer_1
 62
7
100
AcDbSpline
 70
8
 71
3
 72
8
 73
4
 74
0
 40
0
 40
0
 40
0
 40
0
 40
1
 40
1
 40
1
 40
1
 10
530.681190
 20
356.632980
 30
0.0
 10
530.557753
 20
356.339978
 30
0.0
 10
530.379558
 20
356.073211
 30
0.0
 10
530.156160
 20
355.846980
 30
0.0
  0
SPLINE
  5
17f
100
AcDbEntity
  8
Layer_1
 62
7
100
AcDbSpline
 70
8
 71
3
 72
8
 73
4
 74
0
 40
0
 40
0
 40
0
 40
0
 40
1
 40
1
 40
1
 40
1
 10
530.156160
 20
355.846980
 30
0.0
 10
530.150316
 20
355.841953
 30
0.0
 10
530.144450
 20
355.836953
 30
0.0
 10
530.138560
 20
355.831980
 30
0.0
  0
SPLINE
  5
180
100
AcDbEntity
  8
Layer_1
 62
7
100
AcDbSpline
 70
8
 71
3
 72
8
 73
4
 74
0
 40
0
 40
0
 40
0
 40
0
 40
1
 40
1
 40
1
 40
1
 10
530.138560
 20
355.831980
 30
0.0
 10
529.922543
 20
355.623098
 30
0.0
 10
529.670638
 20
355.454871
 30
0.0
 10
529.394930
 20
355.335370
 30
0.0
  0
SPLINE
  5
181
100
AcDbEntity
  8
Layer_1
 62
7
100
AcDbSpline
 70
8
 71
3
 72
8
 73
4
 74
0
 40
0
 40
0
 40
0
 40
0
 40
1
 40
1
 40
1
 40
1
 10
529.394930
 20
355.335370
 30
0.0
 10
529.355741
 20
355.317987
 30
0.0
 10
529.316111
 20
355.301615
 30
0.0
 10
529.276080
 20
355.286270
 30
0.0
  0
SPLINE
  5
182
100
AcDbEntity
  8
Layer_1
 62
7
100
AcDbSpline
 70
8
 71
3
 72
8
 73
4
 74
0
 40
0
 40
0
 40
0
 40
0
 40
1
 40
1
 40
1
 40
1
 10
529.276080
 20
355.286270
 30
0.0
 10
529.011598
 20
355.185029
 30
0.0
 10
528.731837
 20
355.129461
 30
0.0
 10
528.448740
 20
355.121940
 30
0.0
  0
SPLINE
  5
183
100
AcDbEntity
  8
Layer_1
 62
7
100
AcDbSpline
 70
8
 71
3
 72
8
 73
4
 74
0
 40
0
 40
0
 40
0
 40
0
 40
1
 40
1
 40
1
 40
1
 10
528.448740
 20
355.121940
 30
0.0
 10
528.427264
 20
355.117356
 30
0.0
 10
528.405729
 20
355.113056
 30
0.0
 10
528.384140
 20
355.109040
 30
0.0
  0
SPLINE
  5
184
100
AcDbEntity
  8
Layer_1
 62
7
100
AcDbSpline
 70
8
 71
3
 72
8
 73
4
 74
0
 40
0
 40
0
 40
0
 40
0
 40
1
 40
1
 40
1
 40
1
 10
528.384140
 20
355.109040
 30
0.0
 10
527.721062
 20
355.109013
 30
0.0
 10
527.085135
 20
355.372409
 30
0.0
 10
526.616270
 20
355.841277
 30
0.0
  0
SPLINE
  5
185
100
AcDbEntity
  8
Layer_1
 62
7
100
AcDbSpline
 70
8
 71
3
 72
8
 73
4
 74
0
 40
0
 40
0
 40
0
 40
0
 40
1
 40
1
 40
1
 40
1
 10
526.616270
 20
355.841277
 30
0.0
 10
526.147404
 20
356.310144
 30
0.0
 10
525.884011
 20
356.946072
 30
0.0
 10
525.884040
 20
357.609150
 30
0.0
  0
SPLINE
  5
186
100
AcDbEntity
  8
Layer_1
 62
7
100
AcDbSpline
 70
8
 71
3
 72
8
 73
4
 74
0
 40
0
 40
0
 40
0
 40
0
 40
1
 40
1
 40
1
 40
1
 10
525.884040
 20
357.609150
 30
0.0
 10
525.884160
 20
358.273057
 30
0.0
 10
526.148353
 20
358.909651
 30
0.0
 10
526.618360
 20
359.378550
 30
0.0
  0
SPLINE
  5
187
100
AcDbEntity
  8
Layer_1
 62
7
100
AcDbSpline
 70
8
 71
3
 72
8
 73
4
 74
0
 40
0
 40
0
 40
0
 40
0
 40
1
 40
1
 40
1
 40
1
 10
526.618360
 20
359.378550
 30
0.0
 10
527.087253
 20
359.851024
 30
0.0
 10
527.725209
 20
360.116993
 30
0.0
 10
528.390860
 20
360.117520
 30
0.0
  0
LWPOLYLINE
  5
188
100
AcDbEntity
  8
Layer_1
 62
7
100
AcDbPolyline
 90
1
 70
1
 10
293.381390
 20
360.117490
 30
0.0
  0
SPLINE
  5
189
100
AcDbEntity
  8
Layer_1
 62
7
100
AcDbSpline
 70
8
 71
3
 72
8
 73
4
 74
0
 40
0
 40
0
 40
0
 40
0
 40
1
 40
1
 40
1
 40
1
 10
410.851250
 20
225.120560
 30
0.0
 10
412.236240
 20
225.120560
 30
0.0
 10
413.351350
 20
224.004930
 30
0.0
 10
413.351350
 20
222.619930
 30
0.0
  0
SPLINE
  5
18a
100
AcDbEntity
  8
Layer_1
 62
7
100
AcDbSpline
 70
8
 71
3
 72
8
 73
4
 74
0
 40
0
 40
0
 40
0
 40
0
 40
1
 40
1
 40
1
 40
1
 10
413.351350
 20
222.619930
 30
0.0
 10
413.351350
 20
221.234930
 30
0.0
 10
412.236240
 20
220.120340
 30
0.0
 10
410.851250
 20
220.120340
 30
0.0
  0
SPLINE
  5
18b
100
AcDbEntity
  8
Layer_1
 62
7
100
AcDbSpline
 70
8
 71
3
 72
8
 73
4
 74
0
 40
0
 40
0
 40
0
 40
0
 40
1
 40
1
 40
1
 40
1
 10
410.851250
 20
220.120340
 30
0.0
 10
409.466250
 20
220.120340
 30
0.0
 10
408.351660
 20
221.234930
 30
0.0
 10
408.351660
 20
222.619930
 30
0.0
  0
SPLINE
  5
18c
100
AcDbEntity
  8
Layer_1
 62
7
100
AcDbSpline
 70
8
 71
3
 72
8
 73
4
 74
0
 40
0
 40
0
 40
0
 40
0
 40
1
 40
1
 40
1
 40
1
 10
408.351660
 20
222.619930
 30
0.0
 10
408.351660
 20
224.004930
 30
0.0
 10
409.466250
 20
225.120560
 30
0.0
 10
410.851250
 20
225.120560
 30
0.0
  0
LWPOLYLINE
  5
18d
100
AcDbEntity
  8
Layer_1
 62
7
100
AcDbPolyline
 90
1
 70
1
 10
528.390860
 20
360.117520
 30
0.0
  0
SPLINE
  5
18e
100
AcDbEntity
  8
Layer_1
 62
7
100
AcDbSpline
 70
8
 71
3
 72
8
 73
4
 74
0
 40
0
 40
0
 40
0
 40
0
 40
1
 40
1
 40
1
 40
1
 10
293.381410
 20
225.113560
 30
0.0
 10
294.044489
 20
225.113589
 30
0.0
 10
294.680419
 20
224.850195
 30
0.0
 10
295.149287
 20
224.381327
 30
0.0
  0
SPLINE
  5
18f
100
AcDbEntity
  8
Layer_1
 62
7
100
AcDbSpline
 70
8
 71
3
 72
8
 73
4
 74
0
 40
0
 40
0
 40
0
 40
0
 40
1
 40
1
 40
1
 40
1
 10
295.149287
 20
224.381327
 30
0.0
 10
295.618155
 20
223.912459
 30
0.0
 10
295.881549
 20
223.276529
 30
0.0
 10
295.881520
 20
222.613450
 30
0.0
  0
SPLINE
  5
190
100
AcDbEntity
  8
Layer_1
 62
7
100
AcDbSpline
 70
8
 71
3
 72
8
 73
4
 74
0
 40
0
 40
0
 40
0
 40
0
 40
1
 40
1
 40
1
 40
1
 10
295.881520
 20
222.613450
 30
0.0
 10
295.878962
 20
222.290506
 30
0.0
 10
295.813855
 20
221.971117
 30
0.0
 10
295.689800
 20
221.672940
 30
0.0
  0
SPLINE
  5
191
100
AcDbEntity
  8
Layer_1
 62
7
100
AcDbSpline
 70
8
 71
3
 72
8
 73
4
 74
0
 40
0
 40
0
 40
0
 40
0
 40
1
 40
1
 40
1
 40
1
 10
295.689800
 20
221.672940
 30
0.0
 10
295.683583
 20
221.657711
 30
0.0
 10
295.677216
 20
221.642543
 30
0.0
 10
295.670700
 20
221.627440
 30
0.0
  0
SPLINE
  5
192
100
AcDbEntity
  8
Layer_1
 62
7
100
AcDbSpline
 70
8
 71
3
 72
8
 73
4
 74
0
 40
0
 40
0
 40
0
 40
0
 40
1
 40
1
 40
1
 40
1
 10
295.670700
 20
221.627440
 30
0.0
 10
295.547398
 20
221.335073
 30
0.0
 10
295.369566
 20
221.068850
 30
0.0
 10
295.146700
 20
220.842990
 30
0.0
  0
SPLINE
  5
193
100
AcDbEntity
  8
Layer_1
 62
7
100
AcDbSpline
 70
8
 71
3
 72
8
 73
4
 74
0
 40
0
 40
0
 40
0
 40
0
 40
1
 40
1
 40
1
 40
1
 10
295.146700
 20
220.842990
 30
0.0
 10
295.140856
 20
220.837963
 30
0.0
 10
295.134990
 20
220.832963
 30
0.0
 10
295.129100
 20
220.827990
 30
0.0
  0
SPLINE
  5
194
100
AcDbEntity
  8
Layer_1
 62
7
100
AcDbSpline
 70
8
 71
3
 72
8
 73
4
 74
0
 40
0
 40
0
 40
0
 40
0
 40
1
 40
1
 40
1
 40
1
 10
295.129100
 20
220.827990
 30
0.0
 10
294.913351
 20
220.619397
 30
0.0
 10
294.661809
 20
220.451353
 30
0.0
 10
294.386510
 20
220.331900
 30
0.0
  0
SPLINE
  5
195
100
AcDbEntity
  8
Layer_1
 62
7
100
AcDbSpline
 70
8
 71
3
 72
8
 73
4
 74
0
 40
0
 40
0
 40
0
 40
0
 40
1
 40
1
 40
1
 40
1
 10
294.386510
 20
220.331900
 30
0.0
 10
294.346982
 20
220.314332
 30
0.0
 10
294.307006
 20
220.297793
 30
0.0
 10
294.266620
 20
220.282300
 30
0.0
  0
SPLINE
  5
196
100
AcDbEntity
  8
Layer_1
 62
7
100
AcDbSpline
 70
8
 71
3
 72
8
 73
4
 74
0
 40
0
 40
0
 40
0
 40
0
 40
1
 40
1
 40
1
 40
1
 10
294.266620
 20
220.282300
 30
0.0
 10
294.002138
 20
220.181059
 30
0.0
 10
293.722377
 20
220.125491
 30
0.0
 10
293.439280
 20
220.117970
 30
0.0
  0
SPLINE
  5
197
100
AcDbEntity
  8
Layer_1
 62
7
100
AcDbSpline
 70
8
 71
3
 72
8
 73
4
 74
0
 40
0
 40
0
 40
0
 40
0
 40
1
 40
1
 40
1
 40
1
 10
293.439280
 20
220.117970
 30
0.0
 10
293.417804
 20
220.113386
 30
0.0
 10
293.396269
 20
220.109086
 30
0.0
 10
293.374680
 20
220.105070
 30
0.0
  0
SPLINE
  5
198
100
AcDbEntity
  8
Layer_1
 62
7
100
AcDbSpline
 70
8
 71
3
 72
8
 73
4
 74
0
 40
0
 40
0
 40
0
 40
0
 40
1
 40
1
 40
1
 40
1
 10
293.374680
 20
220.105070
 30
0.0
 10
292.711601
 20
220.105041
 30
0.0
 10
292.075671
 20
220.368435
 30
0.0
 10
291.606803
 20
220.837303
 30
0.0
  0
SPLINE
  5
199
100
AcDbEntity
  8
Layer_1
 62
7
100
AcDbSpline
 70
8
 71
3
 72
8
 73
4
 74
0
 40
0
 40
0
 40
0
 40
0
 40
1
 40
1
 40
1
 40
1
 10
291.606803
 20
220.837303
 30
0.0
 10
291.137935
 20
221.306171
 30
0.0
 10
290.874541
 20
221.942101
 30
0.0
 10
290.874570
 20
222.605180
 30
0.0
  0
SPLINE
  5
19a
100
AcDbEntity
  8
Layer_1
 62
7
100
AcDbSpline
 70
8
 71
3
 72
8
 73
4
 74
0
 40
0
 40
0
 40
0
 40
0
 40
1
 40
1
 40
1
 40
1
 10
290.874570
 20
222.605180
 30
0.0
 10
290.874830
 20
223.269413
 30
0.0
 10
291.139417
 20
223.906237
 30
0.0
 10
291.609930
 20
224.375090
 30
0.0
  0
SPLINE
  5
19b
100
AcDbEntity
  8
Layer_1
 62
7
100
AcDbSpline
 70
8
 71
3
 72
8
 73
4
 74
0
 40
0
 40
0
 40
0
 40
0
 40
1
 40
1
 40
1
 40
1
 10
291.609930
 20
224.375090
 30
0.0
 10
292.078652
 20
224.847121
 30
0.0
 10
292.716173
 20
225.112881
 30
0.0
 10
293.381390
 20
225.113550
 30
0.0
  0
LWPOLYLINE
  5
19c
100
AcDbEntity
  8
Layer_1
 62
7
100
AcDbPolyline
 90
1
 70
1
 10
410.851250
 20
225.120560
 30
0.0
  0
SPLINE
  5
19d
100
AcDbEntity
  8
Layer_1
 62
7
100
AcDbSpline
 70
8
 71
3
 72
8
 73
4
 74
0
 40
0
 40
0
 40
0
 40
0
 40
1
 40
1
 40
1
 40
1
 10
528.357770
 20
225.113560
 30
0.0
 10
529.020848
 20
225.113587
 30
0.0
 10
529.656775
 20
224.850191
 30
0.0
 10
530.125640
 20
224.381323
 30
0.0
  0
SPLINE
  5
19e
100
AcDbEntity
  8
Layer_1
 62
7
100
AcDbSpline
 70
8
 71
3
 72
8
 73
4
 74
0
 40
0
 40
0
 40
0
 40
0
 40
1
 40
1
 40
1
 40
1
 10
530.125640
 20
224.381323
 30
0.0
 10
530.594506
 20
223.912456
 30
0.0
 10
530.857899
 20
223.276528
 30
0.0
 10
530.857870
 20
222.613450
 30
0.0
  0
SPLINE
  5
19f
100
AcDbEntity
  8
Layer_1
 62
7
100
AcDbSpline
 70
8
 71
3
 72
8
 73
4
 74
0
 40
0
 40
0
 40
0
 40
0
 40
1
 40
1
 40
1
 40
1
 10
530.857870
 20
222.613450
 30
0.0
 10
530.855318
 20
222.289569
 30
0.0
 10
530.789855
 20
221.969269
 30
0.0
 10
530.665120
 20
221.670360
 30
0.0
  0
SPLINE
  5
1a0
100
AcDbEntity
  8
Layer_1
 62
7
100
AcDbSpline
 70
8
 71
3
 72
8
 73
4
 74
0
 40
0
 40
0
 40
0
 40
0
 40
1
 40
1
 40
1
 40
1
 10
530.665120
 20
221.670360
 30
0.0
 10
530.659543
 20
221.656543
 30
0.0
 10
530.653843
 20
221.642775
 30
0.0
 10
530.648020
 20
221.629060
 30
0.0
  0
SPLINE
  5
1a1
100
AcDbEntity
  8
Layer_1
 62
7
100
AcDbSpline
 70
8
 71
3
 72
8
 73
4
 74
0
 40
0
 40
0
 40
0
 40
0
 40
1
 40
1
 40
1
 40
1
 10
530.648020
 20
221.629060
 30
0.0
 10
530.524583
 20
221.336058
 30
0.0
 10
530.346388
 20
221.069291
 30
0.0
 10
530.122990
 20
220.843060
 30
0.0
  0
SPLINE
  5
1a2
100
AcDbEntity
  8
Layer_1
 62
7
100
AcDbSpline
 70
8
 71
3
 72
8
 73
4
 74
0
 40
0
 40
0
 40
0
 40
0
 40
1
 40
1
 40
1
 40
1
 10
530.122990
 20
220.843060
 30
0.0
 10
530.117146
 20
220.838033
 30
0.0
 10
530.111280
 20
220.833033
 30
0.0
 10
530.105390
 20
220.828060
 30
0.0
  0
SPLINE
  5
1a3
100
AcDbEntity
  8
Layer_1
 62
7
100
AcDbSpline
 70
8
 71
3
 72
8
 73
4
 74
0
 40
0
 40
0
 40
0
 40
0
 40
1
 40
1
 40
1
 40
1
 10
530.105390
 20
220.828060
 30
0.0
 10
529.889373
 20
220.619178
 30
0.0
 10
529.637468
 20
220.450951
 30
0.0
 10
529.361760
 20
220.331450
 30
0.0
  0
SPLINE
  5
1a4
100
AcDbEntity
  8
Layer_1
 62
7
100
AcDbSpline
 70
8
 71
3
 72
8
 73
4
 74
0
 40
0
 40
0
 40
0
 40
0
 40
1
 40
1
 40
1
 40
1
 10
529.361760
 20
220.331450
 30
0.0
 10
529.322571
 20
220.314067
 30
0.0
 10
529.282941
 20
220.297695
 30
0.0
 10
529.242910
 20
220.282350
 30
0.0
  0
SPLINE
  5
1a5
100
AcDbEntity
  8
Layer_1
 62
7
100
AcDbSpline
 70
8
 71
3
 72
8
 73
4
 74
0
 40
0
 40
0
 40
0
 40
0
 40
1
 40
1
 40
1
 40
1
 10
529.242910
 20
220.282350
 30
0.0
 10
528.978428
 20
220.181109
 30
0.0
 10
528.698667
 20
220.125541
 30
0.0
 10
528.415570
 20
220.118020
 30
0.0
  0
SPLINE
  5
1a6
100
AcDbEntity
  8
Layer_1
 62
7
100
AcDbSpline
 70
8
 71
3
 72
8
 73
4
 74
0
 40
0
 40
0
 40
0
 40
0
 40
1
 40
1
 40
1
 40
1
 10
528.415570
 20
220.118020
 30
0.0
 10
528.394094
 20
220.113436
 30
0.0
 10
528.372559
 20
220.109136
 30
0.0
 10
528.350970
 20
220.105120
 30
0.0
  0
SPLINE
  5
1a7
100
AcDbEntity
  8
Layer_1
 62
7
100
AcDbSpline
 70
8
 71
3
 72
8
 73
4
 74
0
 40
0
 40
0
 40
0
 40
0
 40
1
 40
1
 40
1
 40
1
 10
528.350970
 20
220.105120
 30
0.0
 10
527.687891
 20
220.105091
 30
0.0
 10
527.051961
 20
220.368485
 30
0.0
 10
526.583093
 20
220.837353
 30
0.0
  0
SPLINE
  5
1a8
100
AcDbEntity
  8
Layer_1
 62
7
100
AcDbSpline
 70
8
 71
3
 72
8
 73
4
 74
0
 40
0
 40
0
 40
0
 40
0
 40
1
 40
1
 40
1
 40
1
 10
526.583093
 20
220.837353
 30
0.0
 10
526.114225
 20
221.306221
 30
0.0
 10
525.850831
 20
221.942151
 30
0.0
 10
525.850860
 20
222.605230
 30
0.0
  0
SPLINE
  5
1a9
100
AcDbEntity
  8
Layer_1
 62
7
100
AcDbSpline
 70
8
 71
3
 72
8
 73
4
 74
0
 40
0
 40
0
 40
0
 40
0
 40
1
 40
1
 40
1
 40
1
 10
525.850860
 20
222.605230
 30
0.0
 10
525.850983
 20
223.269138
 30
0.0
 10
526.115180
 20
223.905733
 30
0.0
 10
526.585190
 20
224.374630
 30
0.0
  0
SPLINE
  5
1aa
100
AcDbEntity
  8
Layer_1
 62
7
100
AcDbSpline
 70
8
 71
3
 72
8
 73
4
 74
0
 40
0
 40
0
 40
0
 40
0
 40
1
 40
1
 40
1
 40
1
 10
526.585190
 20
224.374630
 30
0.0
 10
527.054083
 20
224.847104
 30
0.0
 10
527.692039
 20
225.113073
 30
0.0
 10
528.357690
 20
225.113600
 30
0.0
  0
LWPOLYLINE
  5
1ab
100
AcDbEntity
  8
Layer_1
 62
7
100
AcDbPolyline
 90
1
 70
1
 10
293.381390
 20
225.113550
 30
0.0
  0
SPLINE
  5
1ac
100
AcDbEntity
  8
Layer_1
 62
7
100
AcDbSpline
 70
8
 71
3
 72
8
 73
4
 74
0
 40
0
 40
0
 40
0
 40
0
 40
1
 40
1
 40
1
 40
1
 10
37.083153
 20
204.269710
 30
0.0
 10
31.543173
 20
204.269710
 30
0.0
 10
27.083253
 20
199.809280
 30
0.0
 10
27.083253
 20
194.269290
 30
0.0
  0
LWPOLYLINE
  5
1ad
100
AcDbEntity
  8
Layer_1
 62
7
100
AcDbPolyline
 90
1
 70
1
 10
528.357690
 20
225.113600
 30
0.0
  0
SPLINE
  5
1ae
100
AcDbEntity
  8
Layer_1
 62
7
100
AcDbSpline
 70
8
 71
3
 72
8
 73
4
 74
0
 40
0
 40
0
 40
0
 40
0
 40
1
 40
1
 40
1
 40
1
 10
27.083253
 20
64.269470
 30
0.0
 10
27.083253
 20
58.729480
 30
0.0
 10
31.543173
 20
54.269570
 30
0.0
 10
37.083153
 20
54.269570
 30
0.0
  0
LWPOLYLINE
  5
1af
100
AcDbEntity
  8
Layer_1
 62
7
100
AcDbPolyline
 90
2
 70
0
 10
27.083253
 20
194.269290
 30
0.0
 10
27.083253
 20
64.269470
 30
0.0
  0
SPLINE
  5
1b0
100
AcDbEntity
  8
Layer_1
 62
7
100
AcDbSpline
 70
8
 71
3
 72
8
 73
4
 74
0
 40
0
 40
0
 40
0
 40
0
 40
1
 40
1
 40
1
 40
1
 10
267.083070
 20
54.269570
 30
0.0
 10
272.623050
 20
54.269570
 30
0.0
 10
277.082980
 20
58.729480
 30
0.0
 10
277.082980
 20
64.269470
 30
0.0
  0
LWPOLYLINE
  5
1b1
100
AcDbEntity
  8
Layer_1
 62
7
100
AcDbPolyline
 90
2
 70
0
 10
37.083153
 20
54.269570
 30
0.0
 10
267.083070
 20
54.269570
 30
0.0
  0
SPLINE
  5
1b2
100
AcDbEntity
  8
Layer_1
 62
7
100
AcDbSpline
 70
8
 71
3
 72
8
 73
4
 74
0
 40
0
 40
0
 40
0
 40
0
 40
1
 40
1
 40
1
 40
1
 10
277.082980
 20
194.269290
 30
0.0
 10
277.082980
 20
199.809280
 30
0.0
 10
272.623050
 20
204.269710
 30
0.0
 10
267.083070
 20
204.269710
 30
0.0
  0
LWPOLYLINE
  5
1b3
100
AcDbEntity
  8
Layer_1
 62
7
100
AcDbPolyline
 90
2
 70
0
 10
277.082980
 20
64.269470
 30
0.0
 10
277.082980
 20
194.269290
 30
0.0
  0
SPLINE
  5
1b4
100
AcDbEntity
  8
Layer_1
 62
7
100
AcDbSpline
 70
8
 71
3
 72
8
 73
4
 74
0
 40
0
 40
0
 40
0
 40
0
 40
1
 40
1
 40
1
 40
1
 10
119.317410
 20
199.282420
 30
0.0
 10
120.702410
 20
199.282420
 30
0.0
 10
121.817520
 20
198.167310
 30
0.0
 10
121.817520
 20
196.782310
 30
0.0
  0
SPLINE
  5
1b5
100
AcDbEntity
  8
Layer_1
 62
7
100
AcDbSpline
 70
8
 71
3
 72
8
 73
4
 74
0
 40
0
 40
0
 40
0
 40
0
 40
1
 40
1
 40
1
 40
1
 10
121.817520
 20
196.782310
 30
0.0
 10
121.817520
 20
195.397320
 30
0.0
 10
120.702410
 20
194.282210
 30
0.0
 10
119.317410
 20
194.282210
 30
0.0
  0
SPLINE
  5
1b6
100
AcDbEntity
  8
Layer_1
 62
7
100
AcDbSpline
 70
8
 71
3
 72
8
 73
4
 74
0
 40
0
 40
0
 40
0
 40
0
 40
1
 40
1
 40
1
 40
1
 10
119.317410
 20
194.282210
 30
0.0
 10
117.932410
 20
194.282210
 30
0.0
 10
116.817310
 20
195.397320
 30
0.0
 10
116.817310
 20
196.782310
 30
0.0
  0
SPLINE
  5
1b7
100
AcDbEntity
  8
Layer_1
 62
7
100
AcDbSpline
 70
8
 71
3
 72
8
 73
4
 74
0
 40
0
 40
0
 40
0
 40
0
 40
1
 40
1
 40
1
 40
1
 10
116.817310
 20
196.782310
 30
0.0
 10
116.817310
 20
198.167310
 30
0.0
 10
117.932410
 20
199.282420
 30
0.0
 10
119.317410
 20
199.282420
 30
0.0
  0
LWPOLYLINE
  5
1b8
100
AcDbEntity
  8
Layer_1
 62
7
100
AcDbPolyline
 90
10
 70
0
 10
267.083070
 20
204.269710
 30
0.0
 10
150.384250
 20
204.269710
 30
0.0
 10
150.384250
 20
191.271020
 30
0.0
 10
154.847540
 20
191.271020
 30
0.0
 10
154.847540
 20
164.271120
 30
0.0
 10
130.847460
 20
164.271120
 30
0.0
 10
130.847460
 20
191.271020
 30
0.0
 10
135.384130
 20
191.271020
 30
0.0
 10
135.384130
 20
204.269710
 30
0.0
 10
37.083153
 20
204.269710
 30
0.0
  0
SPLINE
  5
1b9
100
AcDbEntity
  8
Layer_1
 62
7
100
AcDbSpline
 70
8
 71
3
 72
8
 73
4
 74
0
 40
0
 40
0
 40
0
 40
0
 40
1
 40
1
 40
1
 40
1
 10
166.377070
 20
199.282420
 30
0.0
 10
167.762070
 20
199.282420
 30
0.0
 10
168.877180
 20
198.167310
 30
0.0
 10
168.877180
 20
196.782310
 30
0.0
  0
SPLINE
  5
1ba
100
AcDbEntity
  8
Layer_1
 62
7
100
AcDbSpline
 70
8
 71
3
 72
8
 73
4
 74
0
 40
0
 40
0
 40
0
 40
0
 40
1
 40
1
 40
1
 40
1
 10
168.877180
 20
196.782310
 30
0.0
 10
168.877180
 20
195.397320
 30
0.0
 10
167.762070
 20
194.282210
 30
0.0
 10
166.377070
 20
194.282210
 30
0.0
  0
SPLINE
  5
1bb
100
AcDbEntity
  8
Layer_1
 62
7
100
AcDbSpline
 70
8
 71
3
 72
8
 73
4
 74
0
 40
0
 40
0
 40
0
 40
0
 40
1
 40
1
 40
1
 40
1
 10
166.377070
 20
194.282210
 30
0.0
 10
164.992070
 20
194.282210
 30
0.0
 10
163.876970
 20
195.397320
 30
0.0
 10
163.876970
 20
196.782310
 30
0.0
  0
SPLINE
  5
1bc
100
AcDbEntity
  8
Layer_1
 62
7
100
AcDbSpline
 70
8
 71
3
 72
8
 73
4
 74
0
 40
0
 40
0
 40
0
 40
0
 40
1
 40
1
 40
1
 40
1
 10
163.876970
 20
196.782310
 30
0.0
 10
163.876970
 20
198.167310
 30
0.0
 10
164.992070
 20
199.282420
 30
0.0
 10
166.377070
 20
199.282420
 30
0.0
  0
LWPOLYLINE
  5
1bd
100
AcDbEntity
  8
Layer_1
 62
7
100
AcDbPolyline
 90
1
 70
1
 10
119.317410
 20
199.282420
 30
0.0
  0
SPLINE
  5
1be
100
AcDbEntity
  8
Layer_1
 62
7
100
AcDbSpline
 70
8
 71
3
 72
8
 73
4
 74
0
 40
0
 40
0
 40
0
 40
0
 40
1
 40
1
 40
1
 40
1
 10
34.588223
 20
199.274420
 30
0.0
 10
35.251299
 20
199.274447
 30
0.0
 10
35.887225
 20
199.011052
 30
0.0
 10
36.356090
 20
198.542187
 30
0.0
  0
SPLINE
  5
1bf
100
AcDbEntity
  8
Layer_1
 62
7
100
AcDbSpline
 70
8
 71
3
 72
8
 73
4
 74
0
 40
0
 40
0
 40
0
 40
0
 40
1
 40
1
 40
1
 40
1
 10
36.356090
 20
198.542187
 30
0.0
 10
36.824955
 20
198.073322
 30
0.0
 10
37.088350
 20
197.437396
 30
0.0
 10
37.088323
 20
196.774320
 30
0.0
  0
SPLINE
  5
1c0
100
AcDbEntity
  8
Layer_1
 62
7
100
AcDbSpline
 70
8
 71
3
 72
8
 73
4
 74
0
 40
0
 40
0
 40
0
 40
0
 40
1
 40
1
 40
1
 40
1
 10
37.088323
 20
196.774320
 30
0.0
 10
37.085765
 20
196.451376
 30
0.0
 10
37.020658
 20
196.131987
 30
0.0
 10
36.896603
 20
195.833810
 30
0.0
  0
SPLINE
  5
1c1
100
AcDbEntity
  8
Layer_1
 62
7
100
AcDbSpline
 70
8
 71
3
 72
8
 73
4
 74
0
 40
0
 40
0
 40
0
 40
0
 40
1
 40
1
 40
1
 40
1
 10
36.896603
 20
195.833810
 30
0.0
 10
36.890386
 20
195.818581
 30
0.0
 10
36.884019
 20
195.803413
 30
0.0
 10
36.877503
 20
195.788310
 30
0.0
  0
SPLINE
  5
1c2
100
AcDbEntity
  8
Layer_1
 62
7
100
AcDbSpline
 70
8
 71
3
 72
8
 73
4
 74
0
 40
0
 40
0
 40
0
 40
0
 40
1
 40
1
 40
1
 40
1
 10
36.877503
 20
195.788310
 30
0.0
 10
36.754201
 20
195.495943
 30
0.0
 10
36.576369
 20
195.229720
 30
0.0
 10
36.353503
 20
195.003860
 30
0.0
  0
SPLINE
  5
1c3
100
AcDbEntity
  8
Layer_1
 62
7
100
AcDbSpline
 70
8
 71
3
 72
8
 73
4
 74
0
 40
0
 40
0
 40
0
 40
0
 40
1
 40
1
 40
1
 40
1
 10
36.353503
 20
195.003860
 30
0.0
 10
36.347659
 20
194.998833
 30
0.0
 10
36.341793
 20
194.993833
 30
0.0
 10
36.335903
 20
194.988860
 30
0.0
  0
SPLINE
  5
1c4
100
AcDbEntity
  8
Layer_1
 62
7
100
AcDbSpline
 70
8
 71
3
 72
8
 73
4
 74
0
 40
0
 40
0
 40
0
 40
0
 40
1
 40
1
 40
1
 40
1
 10
36.335903
 20
194.988860
 30
0.0
 10
36.120155
 20
194.780264
 30
0.0
 10
35.868613
 20
194.612216
 30
0.0
 10
35.593313
 20
194.492760
 30
0.0
  0
SPLINE
  5
1c5
100
AcDbEntity
  8
Layer_1
 62
7
100
AcDbSpline
 70
8
 71
3
 72
8
 73
4
 74
0
 40
0
 40
0
 40
0
 40
0
 40
1
 40
1
 40
1
 40
1
 10
35.593313
 20
194.492760
 30
0.0
 10
35.553785
 20
194.475192
 30
0.0
 10
35.513809
 20
194.458653
 30
0.0
 10
35.473423
 20
194.443160
 30
0.0
  0
SPLINE
  5
1c6
100
AcDbEntity
  8
Layer_1
 62
7
100
AcDbSpline
 70
8
 71
3
 72
8
 73
4
 74
0
 40
0
 40
0
 40
0
 40
0
 40
1
 40
1
 40
1
 40
1
 10
35.473423
 20
194.443160
 30
0.0
 10
35.208941
 20
194.341919
 30
0.0
 10
34.929180
 20
194.286351
 30
0.0
 10
34.646083
 20
194.278830
 30
0.0
  0
SPLINE
  5
1c7
100
AcDbEntity
  8
Layer_1
 62
7
100
AcDbSpline
 70
8
 71
3
 72
8
 73
4
 74
0
 40
0
 40
0
 40
0
 40
0
 40
1
 40
1
 40
1
 40
1
 10
34.646083
 20
194.278830
 30
0.0
 10
34.624607
 20
194.274246
 30
0.0
 10
34.603072
 20
194.269946
 30
0.0
 10
34.581483
 20
194.265930
 30
0.0
  0
SPLINE
  5
1c8
100
AcDbEntity
  8
Layer_1
 62
7
100
AcDbSpline
 70
8
 71
3
 72
8
 73
4
 74
0
 40
0
 40
0
 40
0
 40
0
 40
1
 40
1
 40
1
 40
1
 10
34.581483
 20
194.265930
 30
0.0
 10
33.918404
 20
194.265901
 30
0.0
 10
33.282474
 20
194.529295
 30
0.0
 10
32.813606
 20
194.998163
 30
0.0
  0
SPLINE
  5
1c9
100
AcDbEntity
  8
Layer_1
 62
7
100
AcDbSpline
 70
8
 71
3
 72
8
 73
4
 74
0
 40
0
 40
0
 40
0
 40
0
 40
1
 40
1
 40
1
 40
1
 10
32.813606
 20
194.998163
 30
0.0
 10
32.344738
 20
195.467031
 30
0.0
 10
32.081344
 20
196.102961
 30
0.0
 10
32.081373
 20
196.766040
 30
0.0
  0
SPLINE
  5
1ca
100
AcDbEntity
  8
Layer_1
 62
7
100
AcDbSpline
 70
8
 71
3
 72
8
 73
4
 74
0
 40
0
 40
0
 40
0
 40
0
 40
1
 40
1
 40
1
 40
1
 10
32.081373
 20
196.766040
 30
0.0
 10
32.081630
 20
197.430277
 30
0.0
 10
32.346217
 20
198.067105
 30
0.0
 10
32.816733
 20
198.535960
 30
0.0
  0
SPLINE
  5
1cb
100
AcDbEntity
  8
Layer_1
 62
7
100
AcDbSpline
 70
8
 71
3
 72
8
 73
4
 74
0
 40
0
 40
0
 40
0
 40
0
 40
1
 40
1
 40
1
 40
1
 10
32.816733
 20
198.535960
 30
0.0
 10
33.285460
 20
199.007990
 30
0.0
 10
33.922984
 20
199.273747
 30
0.0
 10
34.588203
 20
199.274410
 30
0.0
  0
LWPOLYLINE
  5
1cc
100
AcDbEntity
  8
Layer_1
 62
7
100
AcDbPolyline
 90
1
 70
1
 10
166.377070
 20
199.282420
 30
0.0
  0
SPLINE
  5
1cd
100
AcDbEntity
  8
Layer_1
 62
7
100
AcDbSpline
 70
8
 71
3
 72
8
 73
4
 74
0
 40
0
 40
0
 40
0
 40
0
 40
1
 40
1
 40
1
 40
1
 10
269.597640
 20
199.274420
 30
0.0
 10
270.260718
 20
199.274449
 30
0.0
 10
270.896646
 20
199.011056
 30
0.0
 10
271.365513
 20
198.542190
 30
0.0
  0
SPLINE
  5
1ce
100
AcDbEntity
  8
Layer_1
 62
7
100
AcDbSpline
 70
8
 71
3
 72
8
 73
4
 74
0
 40
0
 40
0
 40
0
 40
0
 40
1
 40
1
 40
1
 40
1
 10
271.365513
 20
198.542190
 30
0.0
 10
271.834381
 20
198.073325
 30
0.0
 10
272.097777
 20
197.437398
 30
0.0
 10
272.097750
 20
196.774320
 30
0.0
  0
SPLINE
  5
1cf
100
AcDbEntity
  8
Layer_1
 62
7
100
AcDbSpline
 70
8
 71
3
 72
8
 73
4
 74
0
 40
0
 40
0
 40
0
 40
0
 40
1
 40
1
 40
1
 40
1
 10
272.097750
 20
196.774320
 30
0.0
 10
272.095200
 20
196.450435
 30
0.0
 10
272.029736
 20
196.130132
 30
0.0
 10
271.905000
 20
195.831220
 30
0.0
  0
SPLINE
  5
1d0
100
AcDbEntity
  8
Layer_1
 62
7
100
AcDbSpline
 70
8
 71
3
 72
8
 73
4
 74
0
 40
0
 40
0
 40
0
 40
0
 40
1
 40
1
 40
1
 40
1
 10
271.905000
 20
195.831220
 30
0.0
 10
271.899423
 20
195.817403
 30
0.0
 10
271.893723
 20
195.803635
 30
0.0
 10
271.887900
 20
195.789920
 30
0.0
  0
SPLINE
  5
1d1
100
AcDbEntity
  8
Layer_1
 62
7
100
AcDbSpline
 70
8
 71
3
 72
8
 73
4
 74
0
 40
0
 40
0
 40
0
 40
0
 40
1
 40
1
 40
1
 40
1
 10
271.887900
 20
195.789920
 30
0.0
 10
271.764463
 20
195.496918
 30
0.0
 10
271.586268
 20
195.230151
 30
0.0
 10
271.362870
 20
195.003920
 30
0.0
  0
SPLINE
  5
1d2
100
AcDbEntity
  8
Layer_1
 62
7
100
AcDbSpline
 70
8
 71
3
 72
8
 73
4
 74
0
 40
0
 40
0
 40
0
 40
0
 40
1
 40
1
 40
1
 40
1
 10
271.362870
 20
195.003920
 30
0.0
 10
271.357026
 20
194.998893
 30
0.0
 10
271.351160
 20
194.993893
 30
0.0
 10
271.345270
 20
194.988920
 30
0.0
  0
SPLINE
  5
1d3
100
AcDbEntity
  8
Layer_1
 62
7
100
AcDbSpline
 70
8
 71
3
 72
8
 73
4
 74
0
 40
0
 40
0
 40
0
 40
0
 40
1
 40
1
 40
1
 40
1
 10
271.345270
 20
194.988920
 30
0.0
 10
271.129257
 20
194.780035
 30
0.0
 10
270.877355
 20
194.611805
 30
0.0
 10
270.601650
 20
194.492300
 30
0.0
  0
SPLINE
  5
1d4
100
AcDbEntity
  8
Layer_1
 62
7
100
AcDbSpline
 70
8
 71
3
 72
8
 73
4
 74
0
 40
0
 40
0
 40
0
 40
0
 40
1
 40
1
 40
1
 40
1
 10
270.601650
 20
194.492300
 30
0.0
 10
270.562458
 20
194.474917
 30
0.0
 10
270.522824
 20
194.458545
 30
0.0
 10
270.482790
 20
194.443200
 30
0.0
  0
SPLINE
  5
1d5
100
AcDbEntity
  8
Layer_1
 62
7
100
AcDbSpline
 70
8
 71
3
 72
8
 73
4
 74
0
 40
0
 40
0
 40
0
 40
0
 40
1
 40
1
 40
1
 40
1
 10
270.482790
 20
194.443200
 30
0.0
 10
270.218308
 20
194.341959
 30
0.0
 10
269.938547
 20
194.286391
 30
0.0
 10
269.655450
 20
194.278870
 30
0.0
  0
SPLINE
  5
1d6
100
AcDbEntity
  8
Layer_1
 62
7
100
AcDbSpline
 70
8
 71
3
 72
8
 73
4
 74
0
 40
0
 40
0
 40
0
 40
0
 40
1
 40
1
 40
1
 40
1
 10
269.655450
 20
194.278870
 30
0.0
 10
269.633974
 20
194.274286
 30
0.0
 10
269.612439
 20
194.269986
 30
0.0
 10
269.590850
 20
194.265970
 30
0.0
  0
SPLINE
  5
1d7
100
AcDbEntity
  8
Layer_1
 62
7
100
AcDbSpline
 70
8
 71
3
 72
8
 73
4
 74
0
 40
0
 40
0
 40
0
 40
0
 40
1
 40
1
 40
1
 40
1
 10
269.590850
 20
194.265970
 30
0.0
 10
268.927771
 20
194.265941
 30
0.0
 10
268.291841
 20
194.529335
 30
0.0
 10
267.822973
 20
194.998203
 30
0.0
  0
SPLINE
  5
1d8
100
AcDbEntity
  8
Layer_1
 62
7
100
AcDbSpline
 70
8
 71
3
 72
8
 73
4
 74
0
 40
0
 40
0
 40
0
 40
0
 40
1
 40
1
 40
1
 40
1
 10
267.822973
 20
194.998203
 30
0.0
 10
267.354105
 20
195.467071
 30
0.0
 10
267.090711
 20
196.103001
 30
0.0
 10
267.090740
 20
196.766080
 30
0.0
  0
SPLINE
  5
1d9
100
AcDbEntity
  8
Layer_1
 62
7
100
AcDbSpline
 70
8
 71
3
 72
8
 73
4
 74
0
 40
0
 40
0
 40
0
 40
0
 40
1
 40
1
 40
1
 40
1
 10
267.090740
 20
196.766080
 30
0.0
 10
267.090860
 20
197.429987
 30
0.0
 10
267.355053
 20
198.066581
 30
0.0
 10
267.825060
 20
198.535480
 30
0.0
  0
SPLINE
  5
1da
100
AcDbEntity
  8
Layer_1
 62
7
100
AcDbSpline
 70
8
 71
3
 72
8
 73
4
 74
0
 40
0
 40
0
 40
0
 40
0
 40
1
 40
1
 40
1
 40
1
 10
267.825060
 20
198.535480
 30
0.0
 10
268.293953
 20
199.007954
 30
0.0
 10
268.931909
 20
199.273923
 30
0.0
 10
269.597560
 20
199.274450
 30
0.0
  0
LWPOLYLINE
  5
1db
100
AcDbEntity
  8
Layer_1
 62
7
100
AcDbPolyline
 90
1
 70
1
 10
34.588203
 20
199.274410
 30
0.0
  0
LWPOLYLINE
  5
1dc
100
AcDbEntity
  8
Layer_1
 62
7
100
AcDbPolyline
 90
1
 70
1
 10
269.597560
 20
199.274450
 30
0.0
  0
SPLINE
  5
1dd
100
AcDbEntity
  8
Layer_1
 62
7
100
AcDbSpline
 70
8
 71
3
 72
8
 73
4
 74
0
 40
0
 40
0
 40
0
 40
0
 40
1
 40
1
 40
1
 40
1
 10
124.921200
 20
189.493110
 30
0.0
 10
126.121540
 20
189.493110
 30
0.0
 10
127.087480
 20
188.378520
 30
0.0
 10
127.087480
 20
186.993520
 30
0.0
  0
LWPOLYLINE
  5
1de
100
AcDbEntity
  8
Layer_1
 62
7
100
AcDbPolyline
 90
2
 70
0
 10
77.254353
 20
189.493110
 30
0.0
 10
124.921200
 20
189.493110
 30
0.0
  0
SPLINE
  5
1df
100
AcDbEntity
  8
Layer_1
 62
7
100
AcDbSpline
 70
8
 71
3
 72
8
 73
4
 74
0
 40
0
 40
0
 40
0
 40
0
 40
1
 40
1
 40
1
 40
1
 10
127.087480
 20
176.993610
 30
0.0
 10
127.087480
 20
175.608610
 30
0.0
 10
126.121540
 20
174.493510
 30
0.0
 10
124.921200
 20
174.493510
 30
0.0
  0
LWPOLYLINE
  5
1e0
100
AcDbEntity
  8
Layer_1
 62
7
100
AcDbPolyline
 90
2
 70
0
 10
127.087480
 20
186.993520
 30
0.0
 10
127.087480
 20
176.993610
 30
0.0
  0
SPLINE
  5
1e1
100
AcDbEntity
  8
Layer_1
 62
7
100
AcDbSpline
 70
8
 71
3
 72
8
 73
4
 74
0
 40
0
 40
0
 40
0
 40
0
 40
1
 40
1
 40
1
 40
1
 10
77.254353
 20
174.493510
 30
0.0
 10
76.054013
 20
174.493510
 30
0.0
 10
75.087553
 20
175.608610
 30
0.0
 10
75.087553
 20
176.993610
 30
0.0
  0
LWPOLYLINE
  5
1e2
100
AcDbEntity
  8
Layer_1
 62
7
100
AcDbPolyline
 90
2
 70
0
 10
124.921200
 20
174.493510
 30
0.0
 10
77.254353
 20
174.493510
 30
0.0
  0
SPLINE
  5
1e3
100
AcDbEntity
  8
Layer_1
 62
7
100
AcDbSpline
 70
8
 71
3
 72
8
 73
4
 74
0
 40
0
 40
0
 40
0
 40
0
 40
1
 40
1
 40
1
 40
1
 10
75.087553
 20
186.993520
 30
0.0
 10
75.087553
 20
188.378520
 30
0.0
 10
76.054013
 20
189.493110
 30
0.0
 10
77.254353
 20
189.493110
 30
0.0
  0
LWPOLYLINE
  5
1e4
100
AcDbEntity
  8
Layer_1
 62
7
100
AcDbPolyline
 90
2
 70
0
 10
75.087553
 20
176.993610
 30
0.0
 10
75.087553
 20
186.993520
 30
0.0
  0
LWPOLYLINE
  5
1e5
100
AcDbEntity
  8
Layer_1
 62
7
100
AcDbPolyline
 90
1
 70
1
 10
77.254353
 20
189.493110
 30
0.0
  0
LWPOLYLINE
  5
1e6
100
AcDbEntity
  8
Layer_1
 62
7
100
AcDbPolyline
 90
18
 70
1
 10
180.010860
 20
178.830190
 30
0.0
 10
199.510970
 20
178.830190
 30
0.0
 10
218.581640
 20
178.830190
 30
0.0
 10
237.620270
 20
178.830190
 30
0.0
 10
237.620270
 20
159.780190
 30
0.0
 10
237.620270
 20
140.280090
 30
0.0
 10
218.581640
 20
140.280090
 30
0.0
 10
199.510970
 20
140.280090
 30
0.0
 10
180.459930
 20
140.280090
 30
0.0
 10
180.459930
 20
134.673710
 30
0.0
 10
160.959830
 20
134.673710
 30
0.0
 10
160.959830
 20
153.723710
 30
0.0
 10
160.959830
 20
173.223820
 30
0.0
 10
163.796870
 20
173.223820
 30
0.0
 10
163.796870
 20
173.236220
 30
0.0
 10
166.547090
 20
173.236220
 30
0.0
 10
166.547090
 20
173.223820
 30
0.0
 10
180.010860
 20
173.223820
 30
0.0
  0
LWPOLYLINE
  5
1e7
100
AcDbEntity
  8
Layer_1
 62
7
100
AcDbPolyline
 90
10
 70
1
 10
66.486013
 20
170.075690
 30
0.0
 10
85.986113
 20
170.075690
 30
0.0
 10
105.019580
 20
170.075690
 30
0.0
 10
105.019580
 20
164.519440
 30
0.0
 10
124.103170
 20
164.519440
 30
0.0
 10
124.103170
 20
145.019340
 30
0.0
 10
104.603060
 20
145.019340
 30
0.0
 10
104.603060
 20
150.575590
 30
0.0
 10
85.986113
 20
150.575590
 30
0.0
 10
66.486013
 20
150.575590
 30
0.0
  0
SPLINE
  5
1e8
100
AcDbEntity
  8
Layer_1
 62
7
100
AcDbSpline
 70
8
 71
3
 72
8
 73
4
 74
0
 40
0
 40
0
 40
0
 40
0
 40
1
 40
1
 40
1
 40
1
 10
152.058050
 20
64.277490
 30
0.0
 10
153.443050
 20
64.277490
 30
0.0
 10
154.558150
 20
63.162390
 30
0.0
 10
154.558150
 20
61.777390
 30
0.0
  0
SPLINE
  5
1e9
100
AcDbEntity
  8
Layer_1
 62
7
100
AcDbSpline
 70
8
 71
3
 72
8
 73
4
 74
0
 40
0
 40
0
 40
0
 40
0
 40
1
 40
1
 40
1
 40
1
 10
154.558150
 20
61.777390
 30
0.0
 10
154.558150
 20
60.392390
 30
0.0
 10
153.443050
 20
59.277800
 30
0.0
 10
152.058050
 20
59.277800
 30
0.0
  0
SPLINE
  5
1ea
100
AcDbEntity
  8
Layer_1
 62
7
100
AcDbSpline
 70
8
 71
3
 72
8
 73
4
 74
0
 40
0
 40
0
 40
0
 40
0
 40
1
 40
1
 40
1
 40
1
 10
152.058050
 20
59.277800
 30
0.0
 10
150.673050
 20
59.277800
 30
0.0
 10
149.558460
 20
60.392390
 30
0.0
 10
149.558460
 20
61.777390
 30
0.0
  0
SPLINE
  5
1eb
100
AcDbEntity
  8
Layer_1
 62
7
100
AcDbSpline
 70
8
 71
3
 72
8
 73
4
 74
0
 40
0
 40
0
 40
0
 40
0
 40
1
 40
1
 40
1
 40
1
 10
149.558460
 20
61.777390
 30
0.0
 10
149.558460
 20
63.162390
 30
0.0
 10
150.673050
 20
64.277490
 30
0.0
 10
152.058050
 20
64.277490
 30
0.0
  0
LWPOLYLINE
  5
1ec
100
AcDbEntity
  8
Layer_1
 62
7
100
AcDbPolyline
 90
4
 70
1
 10
124.011180
 20
126.419950
 30
0.0
 10
163.511100
 20
126.419950
 30
0.0
 10
163.511100
 20
106.919850
 30
0.0
 10
124.011180
 20
106.919850
 30
0.0
  0
SPLINE
  5
1ed
100
AcDbEntity
  8
Layer_1
 62
7
100
AcDbSpline
 70
8
 71
3
 72
8
 73
4
 74
0
 40
0
 40
0
 40
0
 40
0
 40
1
 40
1
 40
1
 40
1
 10
34.588223
 20
64.270490
 30
0.0
 10
35.251301
 20
64.270517
 30
0.0
 10
35.887228
 20
64.007121
 30
0.0
 10
36.356093
 20
63.538253
 30
0.0
  0
SPLINE
  5
1ee
100
AcDbEntity
  8
Layer_1
 62
7
100
AcDbSpline
 70
8
 71
3
 72
8
 73
4
 74
0
 40
0
 40
0
 40
0
 40
0
 40
1
 40
1
 40
1
 40
1
 10
36.356093
 20
63.538253
 30
0.0
 10
36.824959
 20
63.069386
 30
0.0
 10
37.088352
 20
62.433458
 30
0.0
 10
37.088323
 20
61.770380
 30
0.0
  0
SPLINE
  5
1ef
100
AcDbEntity
  8
Layer_1
 62
7
100
AcDbSpline
 70
8
 71
3
 72
8
 73
4
 74
0
 40
0
 40
0
 40
0
 40
0
 40
1
 40
1
 40
1
 40
1
 10
37.088323
 20
61.770380
 30
0.0
 10
37.085765
 20
61.447436
 30
0.0
 10
37.020658
 20
61.128047
 30
0.0
 10
36.896603
 20
60.829870
 30
0.0
  0
SPLINE
  5
1f0
100
AcDbEntity
  8
Layer_1
 62
7
100
AcDbSpline
 70
8
 71
3
 72
8
 73
4
 74
0
 40
0
 40
0
 40
0
 40
0
 40
1
 40
1
 40
1
 40
1
 10
36.896603
 20
60.829870
 30
0.0
 10
36.890386
 20
60.814641
 30
0.0
 10
36.884019
 20
60.799473
 30
0.0
 10
36.877503
 20
60.784370
 30
0.0
  0
SPLINE
  5
1f1
100
AcDbEntity
  8
Layer_1
 62
7
100
AcDbSpline
 70
8
 71
3
 72
8
 73
4
 74
0
 40
0
 40
0
 40
0
 40
0
 40
1
 40
1
 40
1
 40
1
 10
36.877503
 20
60.784370
 30
0.0
 10
36.754200
 20
60.492006
 30
0.0
 10
36.576368
 20
60.225787
 30
0.0
 10
36.353503
 20
59.999930
 30
0.0
  0
SPLINE
  5
1f2
100
AcDbEntity
  8
Layer_1
 62
7
100
AcDbSpline
 70
8
 71
3
 72
8
 73
4
 74
0
 40
0
 40
0
 40
0
 40
0
 40
1
 40
1
 40
1
 40
1
 10
36.353503
 20
59.999930
 30
0.0
 10
36.347659
 20
59.994903
 30
0.0
 10
36.341793
 20
59.989903
 30
0.0
 10
36.335903
 20
59.984930
 30
0.0
  0
SPLINE
  5
1f3
100
AcDbEntity
  8
Layer_1
 62
7
100
AcDbSpline
 70
8
 71
3
 72
8
 73
4
 74
0
 40
0
 40
0
 40
0
 40
0
 40
1
 40
1
 40
1
 40
1
 10
36.335903
 20
59.984930
 30
0.0
 10
36.120154
 20
59.776337
 30
0.0
 10
35.868612
 20
59.608293
 30
0.0
 10
35.593313
 20
59.488840
 30
0.0
  0
SPLINE
  5
1f4
100
AcDbEntity
  8
Layer_1
 62
7
100
AcDbSpline
 70
8
 71
3
 72
8
 73
4
 74
0
 40
0
 40
0
 40
0
 40
0
 40
1
 40
1
 40
1
 40
1
 10
35.593313
 20
59.488840
 30
0.0
 10
35.553785
 20
59.471272
 30
0.0
 10
35.513809
 20
59.454733
 30
0.0
 10
35.473423
 20
59.439240
 30
0.0
  0
SPLINE
  5
1f5
100
AcDbEntity
  8
Layer_1
 62
7
100
AcDbSpline
 70
8
 71
3
 72
8
 73
4
 74
0
 40
0
 40
0
 40
0
 40
0
 40
1
 40
1
 40
1
 40
1
 10
35.473423
 20
59.439240
 30
0.0
 10
35.208941
 20
59.337999
 30
0.0
 10
34.929180
 20
59.282431
 30
0.0
 10
34.646083
 20
59.274910
 30
0.0
  0
SPLINE
  5
1f6
100
AcDbEntity
  8
Layer_1
 62
7
100
AcDbSpline
 70
8
 71
3
 72
8
 73
4
 74
0
 40
0
 40
0
 40
0
 40
0
 40
1
 40
1
 40
1
 40
1
 10
34.646083
 20
59.274910
 30
0.0
 10
34.624607
 20
59.270326
 30
0.0
 10
34.603072
 20
59.266026
 30
0.0
 10
34.581483
 20
59.262010
 30
0.0
  0
SPLINE
  5
1f7
100
AcDbEntity
  8
Layer_1
 62
7
100
AcDbSpline
 70
8
 71
3
 72
8
 73
4
 74
0
 40
0
 40
0
 40
0
 40
0
 40
1
 40
1
 40
1
 40
1
 10
34.581483
 20
59.262010
 30
0.0
 10
33.918405
 20
59.261981
 30
0.0
 10
33.282477
 20
59.525374
 30
0.0
 10
32.813610
 20
59.994240
 30
0.0
  0
SPLINE
  5
1f8
100
AcDbEntity
  8
Layer_1
 62
7
100
AcDbSpline
 70
8
 71
3
 72
8
 73
4
 74
0
 40
0
 40
0
 40
0
 40
0
 40
1
 40
1
 40
1
 40
1
 10
32.813610
 20
59.994240
 30
0.0
 10
32.344742
 20
60.463105
 30
0.0
 10
32.081346
 20
61.099032
 30
0.0
 10
32.081373
 20
61.762110
 30
0.0
  0
SPLINE
  5
1f9
100
AcDbEntity
  8
Layer_1
 62
7
100
AcDbSpline
 70
8
 71
3
 72
8
 73
4
 74
0
 40
0
 40
0
 40
0
 40
0
 40
1
 40
1
 40
1
 40
1
 10
32.081373
 20
61.762110
 30
0.0
 10
32.081630
 20
62.426347
 30
0.0
 10
32.346217
 20
63.063175
 30
0.0
 10
32.816733
 20
63.532030
 30
0.0
  0
SPLINE
  5
1fa
100
AcDbEntity
  8
Layer_1
 62
7
100
AcDbSpline
 70
8
 71
3
 72
8
 73
4
 74
0
 40
0
 40
0
 40
0
 40
0
 40
1
 40
1
 40
1
 40
1
 10
32.816733
 20
63.532030
 30
0.0
 10
33.285458
 20
64.004064
 30
0.0
 10
33.922982
 20
64.269824
 30
0.0
 10
34.588203
 20
64.270490
 30
0.0
  0
LWPOLYLINE
  5
1fb
100
AcDbEntity
  8
Layer_1
 62
7
100
AcDbPolyline
 90
1
 70
1
 10
152.058050
 20
64.277490
 30
0.0
  0
SPLINE
  5
1fc
100
AcDbEntity
  8
Layer_1
 62
7
100
AcDbSpline
 70
8
 71
3
 72
8
 73
4
 74
0
 40
0
 40
0
 40
0
 40
0
 40
1
 40
1
 40
1
 40
1
 10
269.564570
 20
64.270490
 30
0.0
 10
270.227649
 20
64.270519
 30
0.0
 10
270.863579
 20
64.007125
 30
0.0
 10
271.332447
 20
63.538257
 30
0.0
  0
SPLINE
  5
1fd
100
AcDbEntity
  8
Layer_1
 62
7
100
AcDbSpline
 70
8
 71
3
 72
8
 73
4
 74
0
 40
0
 40
0
 40
0
 40
0
 40
1
 40
1
 40
1
 40
1
 10
271.332447
 20
63.538257
 30
0.0
 10
271.801315
 20
63.069389
 30
0.0
 10
272.064709
 20
62.433459
 30
0.0
 10
272.064680
 20
61.770380
 30
0.0
  0
SPLINE
  5
1fe
100
AcDbEntity
  8
Layer_1
 62
7
100
AcDbSpline
 70
8
 71
3
 72
8
 73
4
 74
0
 40
0
 40
0
 40
0
 40
0
 40
1
 40
1
 40
1
 40
1
 10
272.064680
 20
61.770380
 30
0.0
 10
272.062125
 20
61.446498
 30
0.0
 10
271.996659
 20
61.126199
 30
0.0
 10
271.871920
 20
60.827290
 30
0.0
  0
SPLINE
  5
1ff
100
AcDbEntity
  8
Layer_1
 62
7
100
AcDbSpline
 70
8
 71
3
 72
8
 73
4
 74
0
 40
0
 40
0
 40
0
 40
0
 40
1
 40
1
 40
1
 40
1
 10
271.871920
 20
60.827290
 30
0.0
 10
271.866343
 20
60.813473
 30
0.0
 10
271.860643
 20
60.799705
 30
0.0
 10
271.854820
 20
60.785990
 30
0.0
  0
SPLINE
  5
200
100
AcDbEntity
  8
Layer_1
 62
7
100
AcDbSpline
 70
8
 71
3
 72
8
 73
4
 74
0
 40
0
 40
0
 40
0
 40
0
 40
1
 40
1
 40
1
 40
1
 10
271.854820
 20
60.785990
 30
0.0
 10
271.731382
 20
60.492991
 30
0.0
 10
271.553187
 20
60.226228
 30
0.0
 10
271.329790
 20
60.000000
 30
0.0
  0
SPLINE
  5
201
100
AcDbEntity
  8
Layer_1
 62
7
100
AcDbSpline
 70
8
 71
3
 72
8
 73
4
 74
0
 40
0
 40
0
 40
0
 40
0
 40
1
 40
1
 40
1
 40
1
 10
271.329790
 20
60.000000
 30
0.0
 10
271.323946
 20
59.994973
 30
0.0
 10
271.318080
 20
59.989973
 30
0.0
 10
271.312190
 20
59.985000
 30
0.0
  0
SPLINE
  5
202
100
AcDbEntity
  8
Layer_1
 62
7
100
AcDbSpline
 70
8
 71
3
 72
8
 73
4
 74
0
 40
0
 40
0
 40
0
 40
0
 40
1
 40
1
 40
1
 40
1
 10
271.312190
 20
59.985000
 30
0.0
 10
271.096173
 20
59.776118
 30
0.0
 10
270.844268
 20
59.607891
 30
0.0
 10
270.568560
 20
59.488390
 30
0.0
  0
SPLINE
  5
203
100
AcDbEntity
  8
Layer_1
 62
7
100
AcDbSpline
 70
8
 71
3
 72
8
 73
4
 74
0
 40
0
 40
0
 40
0
 40
0
 40
1
 40
1
 40
1
 40
1
 10
270.568560
 20
59.488390
 30
0.0
 10
270.529371
 20
59.471007
 30
0.0
 10
270.489741
 20
59.454635
 30
0.0
 10
270.449710
 20
59.439290
 30
0.0
  0
SPLINE
  5
204
100
AcDbEntity
  8
Layer_1
 62
7
100
AcDbSpline
 70
8
 71
3
 72
8
 73
4
 74
0
 40
0
 40
0
 40
0
 40
0
 40
1
 40
1
 40
1
 40
1
 10
270.449710
 20
59.439290
 30
0.0
 10
270.185228
 20
59.338049
 30
0.0
 10
269.905467
 20
59.282481
 30
0.0
 10
269.622370
 20
59.274960
 30
0.0
  0
SPLINE
  5
205
100
AcDbEntity
  8
Layer_1
 62
7
100
AcDbSpline
 70
8
 71
3
 72
8
 73
4
 74
0
 40
0
 40
0
 40
0
 40
0
 40
1
 40
1
 40
1
 40
1
 10
269.622370
 20
59.274960
 30
0.0
 10
269.600894
 20
59.270376
 30
0.0
 10
269.579359
 20
59.266076
 30
0.0
 10
269.557770
 20
59.262060
 30
0.0
  0
SPLINE
  5
206
100
AcDbEntity
  8
Layer_1
 62
7
100
AcDbSpline
 70
8
 71
3
 72
8
 73
4
 74
0
 40
0
 40
0
 40
0
 40
0
 40
1
 40
1
 40
1
 40
1
 10
269.557770
 20
59.262060
 30
0.0
 10
268.894694
 20
59.262033
 30
0.0
 10
268.258768
 20
59.525428
 30
0.0
 10
267.789903
 20
59.994293
 30
0.0
  0
SPLINE
  5
207
100
AcDbEntity
  8
Layer_1
 62
7
100
AcDbSpline
 70
8
 71
3
 72
8
 73
4
 74
0
 40
0
 40
0
 40
0
 40
0
 40
1
 40
1
 40
1
 40
1
 10
267.789903
 20
59.994293
 30
0.0
 10
267.321038
 20
60.463158
 30
0.0
 10
267.057643
 20
61.099084
 30
0.0
 10
267.057670
 20
61.762160
 30
0.0
  0
SPLINE
  5
208
100
AcDbEntity
  8
Layer_1
 62
7
100
AcDbSpline
 70
8
 71
3
 72
8
 73
4
 74
0
 40
0
 40
0
 40
0
 40
0
 40
1
 40
1
 40
1
 40
1
 10
267.057670
 20
61.762160
 30
0.0
 10
267.057790
 20
62.426067
 30
0.0
 10
267.321983
 20
63.062661
 30
0.0
 10
267.791990
 20
63.531560
 30
0.0
  0
SPLINE
  5
209
100
AcDbEntity
  8
Layer_1
 62
7
100
AcDbSpline
 70
8
 71
3
 72
8
 73
4
 74
0
 40
0
 40
0
 40
0
 40
0
 40
1
 40
1
 40
1
 40
1
 10
267.791990
 20
63.531560
 30
0.0
 10
268.260881
 20
64.004037
 30
0.0
 10
268.898837
 20
64.270010
 30
0.0
 10
269.564490
 20
64.270540
 30
0.0
  0
LWPOLYLINE
  5
20a
100
AcDbEntity
  8
Layer_1
 62
7
100
AcDbPolyline
 90
1
 70
1
 10
34.588203
 20
64.270490
 30
0.0
  0
LWPOLYLINE
  5
20b
100
AcDbEntity
  8
Layer_1
 62
7
100
AcDbPolyline
 90
1
 70
1
 10
269.564490
 20
64.270540
 30
0.0
  0
ENDSEC
  0
SECTION
  2
OBJECTS
  0
DICTIONARY
  5
C
330
0
100
AcDbDictionary
  3
ACAD_GROUP
350
D
  3
ACAD_MLINESTYLE
350
17
  0
DICTIONARY
  5
D
330
C
100
AcDbDictionary
  0
DICTIONARY
  5
1A
330
C
100
AcDbDictionary
  0
DICTIONARY
  5
17
330
C
100
AcDbDictionary
  3
STANDARD
350
18
  0
DICTIONARY
  5
19
330
C
100
AcDbDictionary
  0
ENDSEC
  0
EOF
