<?xml version="1.0" encoding="UTF-8" standalone="no"?>
<!-- Created with Inkscape (http://www.inkscape.org/) -->

<svg
   width="600mm"
   height="400mm"
   viewBox="0 0 600 400"
   version="1.1"
   id="svg5"
   xml:space="preserve"
   inkscape:version="1.2.2 (732a01da63, 2022-12-09)"
   sodipodi:docname="Case5mm.svg"
   inkscape:export-filename="Bot5mm.svg"
   inkscape:export-xdpi="96"
   inkscape:export-ydpi="96"
   xmlns:inkscape="http://www.inkscape.org/namespaces/inkscape"
   xmlns:sodipodi="http://sodipodi.sourceforge.net/DTD/sodipodi-0.dtd"
   xmlns="http://www.w3.org/2000/svg"
   xmlns:svg="http://www.w3.org/2000/svg"><sodipodi:namedview
     id="namedview7"
     pagecolor="#ffffff"
     bordercolor="#000000"
     borderopacity="0.25"
     inkscape:showpageshadow="2"
     inkscape:pageopacity="0.0"
     inkscape:pagecheckerboard="0"
     inkscape:deskcolor="#d1d1d1"
     inkscape:document-units="mm"
     showgrid="false"
     inkscape:lockguides="false"
     inkscape:zoom="0.5"
     inkscape:cx="1047"
     inkscape:cy="549"
     inkscape:window-width="1920"
     inkscape:window-height="1013"
     inkscape:window-x="-9"
     inkscape:window-y="29"
     inkscape:window-maximized="1"
     inkscape:current-layer="layer1" /><defs
     id="defs2" /><g
     inkscape:label="Layer 1"
     inkscape:groupmode="layer"
     id="layer1"><path
       id="path9700"
       style="opacity:0.75;fill:#000000;fill-opacity:0.74902;stroke-width:0.264583"
       d="m 295.87635,34.88722 c -5.53998,0 -9.9999,4.46043 -9.9999,10.00043 v 129.99981 c 0,5.54 4.45992,9.99991 9.9999,9.99991 h 229.99992 c 5.53998,0 9.9999,-4.45991 9.9999,-9.99991 V 44.88765 c 0,-5.54 -4.45992,-10.00043 -9.9999,-10.00043 H 409.10975 v 12.28091 h 88.72895 c 1.108,0 2.0004,0.89188 2.0004,1.99987 v 84.99998 c 0,1.108 -0.8924,1.99988 -2.0004,1.99988 H 323.83899 c -1.108,0 -1.99988,-0.89188 -1.99988,-1.99988 V 49.168 c 0,-1.10799 0.89188,-1.99987 1.99988,-1.99987 h 70.27064 V 34.88722 Z m 82.23426,4.9873 c 1.385,0 2.5001,1.1151 2.5001,2.5001 0,1.385 -1.1151,2.50011 -2.5001,2.50011 -1.385,0 -2.50011,-1.11511 -2.50011,-2.50011 0,-1.385 1.11511,-2.5001 2.50011,-2.5001 z m 47.05966,0 c 1.385,0 2.5001,1.1151 2.5001,2.5001 0,1.385 -1.1151,2.50011 -2.5001,2.50011 -1.385,0 -2.50011,-1.11511 -2.50011,-2.50011 0,-1.385 1.11511,-2.5001 2.50011,-2.5001 z m -131.78886,0.008 a 2.5,2.5 0 0 1 2.50011,2.5001 2.5,2.5 0 0 1 -0.19172,0.94051 2.5,2.5 0 0 1 -0.0191,0.046 2.5,2.5 0 0 1 -0.524,0.78444 2.5,2.5 0 0 1 -0.0176,0.015 2.5,2.5 0 0 1 -0.74259,0.49609 2.5,2.5 0 0 1 -0.11989,0.0496 2.5,2.5 0 0 1 -0.82734,0.16433 2.5,2.5 0 0 1 -0.0646,0.0124 2.5,2.5 0 0 1 -2.50011,-2.49959 2.5,2.5 0 0 1 0.73536,-1.77044 2.5,2.5 0 0 1 1.77146,-0.73845 z m 235.00943,0 a 2.5,2.5 0 0 1 2.50011,2.5001 2.5,2.5 0 0 1 -0.19276,0.9431 2.5,2.5 0 0 1 -0.017,0.0413 2.5,2.5 0 0 1 -0.52503,0.786 2.5,2.5 0 0 1 -0.0176,0.015 2.5,2.5 0 0 1 -0.74363,0.49661 2.5,2.5 0 0 1 -0.11885,0.0491 2.5,2.5 0 0 1 -0.82734,0.16433 2.5,2.5 0 0 1 -0.0646,0.0129 2.5,2.5 0 0 1 -2.5001,-2.50011 2.5,2.5 0 0 1 0.73432,-1.7694 2.5,2.5 0 0 1 1.7725,-0.73897 z M 410.85125,174.87944 c 1.38499,0 2.5001,1.11563 2.5001,2.50063 0,1.385 -1.11511,2.49959 -2.5001,2.49959 -1.385,0 -2.49959,-1.11459 -2.49959,-2.49959 0,-1.385 1.11459,-2.50063 2.49959,-2.50063 z m -117.46984,0.007 a 2.5,2.5 0 0 1 2.50011,2.50011 2.5,2.5 0 0 1 -0.19172,0.94051 2.5,2.5 0 0 1 -0.0191,0.0455 2.5,2.5 0 0 1 -0.524,0.78445 2.5,2.5 0 0 1 -0.0176,0.015 2.5,2.5 0 0 1 -0.74259,0.49609 2.5,2.5 0 0 1 -0.11989,0.0496 2.5,2.5 0 0 1 -0.82734,0.16433 2.5,2.5 0 0 1 -0.0646,0.0129 2.5,2.5 0 0 1 -2.50011,-2.50011 2.5,2.5 0 0 1 0.73536,-1.76991 2.5,2.5 0 0 1 1.77146,-0.73846 z m 234.97636,0 a 2.5,2.5 0 0 1 2.5001,2.50011 2.5,2.5 0 0 1 -0.19275,0.94309 2.5,2.5 0 0 1 -0.0171,0.0413 2.5,2.5 0 0 1 -0.52503,0.786 2.5,2.5 0 0 1 -0.0176,0.015 2.5,2.5 0 0 1 -0.74363,0.49661 2.5,2.5 0 0 1 -0.11885,0.0491 2.5,2.5 0 0 1 -0.82734,0.16433 2.5,2.5 0 0 1 -0.0646,0.0129 2.5,2.5 0 0 1 -2.50011,-2.50011 2.5,2.5 0 0 1 0.73433,-1.7694 2.5,2.5 0 0 1 1.7725,-0.73897 z" /></g></svg>
