<?xml version="1.0" encoding="UTF-8" standalone="no"?>
<!-- Created with Inkscape (http://www.inkscape.org/) -->

<svg
   width="600mm"
   height="400mm"
   viewBox="0 0 600 400"
   version="1.1"
   id="svg5"
   xml:space="preserve"
   inkscape:version="1.2.2 (732a01da63, 2022-12-09)"
   sodipodi:docname="Case2mm.svg"
   inkscape:export-filename="Mid2mm.svg"
   inkscape:export-xdpi="96"
   inkscape:export-ydpi="96"
   xmlns:inkscape="http://www.inkscape.org/namespaces/inkscape"
   xmlns:sodipodi="http://sodipodi.sourceforge.net/DTD/sodipodi-0.dtd"
   xmlns="http://www.w3.org/2000/svg"
   xmlns:svg="http://www.w3.org/2000/svg"><sodipodi:namedview
     id="namedview7"
     pagecolor="#ffffff"
     bordercolor="#000000"
     borderopacity="0.25"
     inkscape:showpageshadow="2"
     inkscape:pageopacity="0.0"
     inkscape:pagecheckerboard="0"
     inkscape:deskcolor="#d1d1d1"
     inkscape:document-units="mm"
     showgrid="false"
     inkscape:lockguides="false"
     inkscape:zoom="0.35355339"
     inkscape:cx="485.07525"
     inkscape:cy="397.39401"
     inkscape:window-width="1920"
     inkscape:window-height="1013"
     inkscape:window-x="-9"
     inkscape:window-y="29"
     inkscape:window-maximized="1"
     inkscape:current-layer="layer1" /><defs
     id="defs2" /><g
     inkscape:label="Layer 1"
     inkscape:groupmode="layer"
     id="layer1"><path
       id="path9986"
       style="opacity:0.75;fill:#000000;fill-opacity:0.74902;stroke-width:0.264583"
       d="m 54.551416,208.30251 c -5.53999,0 -9.99991,4.46043 -9.99991,10.00043 v 129.99981 c 0,5.54 4.45992,9.99991 9.99991,9.99991 H 284.55127 c 5.54,0 9.9999,-4.45991 9.9999,-9.99991 V 218.30294 c 0,-5.54 -4.4599,-10.00043 -9.9999,-10.00043 z m 82.234254,4.9873 c 1.385,0 2.5001,1.1151 2.5001,2.5001 0,1.385 -1.1151,2.50011 -2.5001,2.50011 -1.385,0 -2.5001,-1.11511 -2.5001,-2.50011 0,-1.385 1.1151,-2.5001 2.5001,-2.5001 z m 47.0596,0 c 1.385,0 2.5001,1.1151 2.5001,2.5001 0,1.385 -1.1151,2.50011 -2.5001,2.50011 -1.385,0 -2.5001,-1.11511 -2.5001,-2.50011 0,-1.385 1.1151,-2.5001 2.5001,-2.5001 z m -131.788794,0.008 a 2.5,2.5 0 0 1 2.5001,2.5001 2.5,2.5 0 0 1 -0.19172,0.94051 2.5,2.5 0 0 1 -0.0191,0.046 2.5,2.5 0 0 1 -0.524,0.78444 2.5,2.5 0 0 1 -0.0176,0.015 2.5,2.5 0 0 1 -0.74259,0.49609 2.5,2.5 0 0 1 -0.11989,0.0496 2.5,2.5 0 0 1 -0.82734,0.16433 2.5,2.5 0 0 1 -0.0646,0.0124 2.5,2.5 0 0 1 -2.50011,-2.49959 2.5,2.5 0 0 1 0.73536,-1.77044 2.5,2.5 0 0 1 1.77147,-0.73845 z m 235.008894,0 h 5e-4 a 2.5,2.5 0 0 1 2.5001,2.5001 2.5,2.5 0 0 1 -0.1927,0.9431 2.5,2.5 0 0 1 -0.017,0.0413 2.5,2.5 0 0 1 -0.525,0.786 2.5,2.5 0 0 1 -0.018,0.015 2.5,2.5 0 0 1 -0.7436,0.49661 2.5,2.5 0 0 1 -0.1189,0.0491 2.5,2.5 0 0 1 -0.8273,0.16433 2.5,2.5 0 0 1 -0.065,0.0129 2.5,2.5 0 0 1 -2.5001,-2.50011 2.5,2.5 0 0 1 0.7343,-1.7694 2.5,2.5 0 0 1 1.7725,-0.73897 z m -192.342804,9.78338 h 47.666304 c 1.2004,0 2.1668,1.11511 2.1668,2.5001 v 9.99991 c 0,1.385 -0.9664,2.50011 -2.1668,2.50011 H 94.722566 c -1.2004,0 -2.1668,-1.11511 -2.1668,-2.50011 v -9.99991 c 0,-1.38499 0.9664,-2.5001 2.1668,-2.5001 z m 102.756504,10.66343 h 19.4996 19.0712 19.0386 v 19.05 19.5001 h -19.0386 -19.0712 -19.0505 v 5.60638 h -19.5001 V 258.85058 239.351 h 2.837 v -0.0124 h 2.7502 v 0.0124 h 13.4638 z m -113.524804,8.75451 h 19.499604 19.0339 v 5.55625 h 19.0831 v 19.5001 h -19.5001 v -5.55625 h -18.6169 -19.499604 z m 57.525104,43.65573 h 39.5 v 19.5001 h -39.5 z m 28.0469,62.13987 c 1.385,0 2.5001,1.11563 2.5001,2.50063 0,1.385 -1.1151,2.49959 -2.5001,2.49959 -1.385,0 -2.4996,-1.11459 -2.4996,-2.49959 0,-1.385 1.1146,-2.50063 2.4996,-2.50063 z m -117.469794,0.007 a 2.5,2.5 0 0 1 2.5001,2.50011 2.5,2.5 0 0 1 -0.19172,0.94051 2.5,2.5 0 0 1 -0.0191,0.0455 2.5,2.5 0 0 1 -0.524,0.78445 2.5,2.5 0 0 1 -0.0176,0.015 2.5,2.5 0 0 1 -0.74259,0.49609 2.5,2.5 0 0 1 -0.11989,0.0496 2.5,2.5 0 0 1 -0.82734,0.16433 2.5,2.5 0 0 1 -0.0646,0.0129 2.5,2.5 0 0 1 -2.50011,-2.50011 2.5,2.5 0 0 1 0.73536,-1.76991 2.5,2.5 0 0 1 1.77147,-0.73846 z m 234.975794,0 h 5e-4 a 2.5,2.5 0 0 1 2.5001,2.50011 2.5,2.5 0 0 1 -0.1927,0.94309 2.5,2.5 0 0 1 -0.017,0.0413 2.5,2.5 0 0 1 -0.525,0.786 2.5,2.5 0 0 1 -0.018,0.015 2.5,2.5 0 0 1 -0.7436,0.49661 2.5,2.5 0 0 1 -0.1189,0.0491 2.5,2.5 0 0 1 -0.8273,0.16433 2.5,2.5 0 0 1 -0.065,0.0129 2.5,2.5 0 0 1 -2.5001,-2.50011 2.5,2.5 0 0 1 0.7343,-1.7694 2.5,2.5 0 0 1 1.7725,-0.73897 z" /></g></svg>
