<?xml version="1.0" encoding="UTF-8" standalone="no"?>
<!-- Created with Inkscape (http://www.inkscape.org/) -->

<svg
   width="600mm"
   height="400mm"
   viewBox="0 0 600 400"
   version="1.1"
   id="svg5"
   xml:space="preserve"
   inkscape:version="1.2.2 (732a01da63, 2022-12-09)"
   sodipodi:docname="Case5mm.svg"
   inkscape:export-filename="Midplate5mm.dxf"
   inkscape:export-xdpi="96"
   inkscape:export-ydpi="96"
   xmlns:inkscape="http://www.inkscape.org/namespaces/inkscape"
   xmlns:sodipodi="http://sodipodi.sourceforge.net/DTD/sodipodi-0.dtd"
   xmlns="http://www.w3.org/2000/svg"
   xmlns:svg="http://www.w3.org/2000/svg"><sodipodi:namedview
     id="namedview7"
     pagecolor="#ffffff"
     bordercolor="#000000"
     borderopacity="0.25"
     inkscape:showpageshadow="2"
     inkscape:pageopacity="0.0"
     inkscape:pagecheckerboard="0"
     inkscape:deskcolor="#d1d1d1"
     inkscape:document-units="mm"
     showgrid="false"
     inkscape:lockguides="false"
     inkscape:zoom="0.5"
     inkscape:cx="1047"
     inkscape:cy="549"
     inkscape:window-width="1920"
     inkscape:window-height="1013"
     inkscape:window-x="-9"
     inkscape:window-y="29"
     inkscape:window-maximized="1"
     inkscape:current-layer="layer1" /><defs
     id="defs2" /><g
     inkscape:label="Layer 1"
     inkscape:groupmode="layer"
     id="layer1"><path
       id="path9638"
       style="opacity:0.75;fill:#000000;fill-opacity:0.74902;stroke-width:0.264583"
       d="m 37.89691,37.10801 c -5.53999,0 -9.99991,4.46043 -9.99991,10.00043 v 129.99983 c 0,5.54 4.45992,9.9999 9.99991,9.9999 h 229.99991 c 5.53999,0 9.99991,-4.4599 9.99991,-9.9999 V 47.10844 c 0,-5.54 -4.45992,-10.00043 -9.99991,-10.00043 z m 82.23425,4.9873 c 1.385,0 2.50011,1.1151 2.50011,2.5001 0,1.385 -1.11511,2.50011 -2.50011,2.50011 -1.385,0 -2.5001,-1.11511 -2.5001,-2.50011 0,-1.385 1.1151,-2.5001 2.5001,-2.5001 z m 47.05966,0 c 1.385,0 2.50011,1.1151 2.50011,2.5001 0,1.385 -1.11511,2.50011 -2.50011,2.50011 -1.385,0 -2.5001,-1.11511 -2.5001,-2.50011 0,-1.385 1.1151,-2.5001 2.5001,-2.5001 z m -131.78885,0.008 a 2.5,2.5 0 0 1 2.5001,2.50011 2.5,2.5 0 0 1 -0.19172,0.94051 2.5,2.5 0 0 1 -0.0191,0.0455 2.5,2.5 0 0 1 -0.524,0.78444 2.5,2.5 0 0 1 -0.0176,0.015 2.5,2.5 0 0 1 -0.74259,0.49609 2.5,2.5 0 0 1 -0.11989,0.0496 2.5,2.5 0 0 1 -0.82734,0.16433 2.5,2.5 0 0 1 -0.0646,0.0129 2.5,2.5 0 0 1 -2.50011,-2.5001 2.5,2.5 0 0 1 0.73536,-1.76992 2.5,2.5 0 0 1 1.77147,-0.73846 z m 235.00942,0 a 2.5,2.5 0 0 1 2.50011,2.50011 2.5,2.5 0 0 1 -0.19275,0.94309 2.5,2.5 0 0 1 -0.0171,0.0413 2.5,2.5 0 0 1 -0.52503,0.78599 2.5,2.5 0 0 1 -0.0176,0.015 2.5,2.5 0 0 1 -0.74362,0.49661 2.5,2.5 0 0 1 -0.11886,0.0491 2.5,2.5 0 0 1 -0.82734,0.16433 2.5,2.5 0 0 1 -0.0646,0.0129 2.5,2.5 0 0 1 -2.50011,-2.5001 2.5,2.5 0 0 1 0.73432,-1.7694 2.5,2.5 0 0 1 1.7725,-0.73898 z M 152.8718,177.10027 c 1.385,0 2.50011,1.1151 2.50011,2.5001 0,1.385 -1.11511,2.4996 -2.50011,2.4996 -1.385,0 -2.49959,-1.1146 -2.49959,-2.4996 0,-1.385 1.11459,-2.5001 2.49959,-2.5001 z m -117.46983,0.01 a 2.5,2.5 0 0 1 2.5001,2.5001 2.5,2.5 0 0 1 -0.19172,0.9405 2.5,2.5 0 0 1 -0.0191,0.046 2.5,2.5 0 0 1 -0.524,0.7844 2.5,2.5 0 0 1 -0.0176,0.015 2.5,2.5 0 0 1 -0.74259,0.4961 2.5,2.5 0 0 1 -0.11989,0.05 2.5,2.5 0 0 1 -0.82734,0.1644 2.5,2.5 0 0 1 -0.0646,0.013 2.5,2.5 0 0 1 -2.50011,-2.5002 2.5,2.5 0 0 1 0.73536,-1.7699 2.5,2.5 0 0 1 1.77147,-0.7384 z m 234.97635,0 a 2.5,2.5 0 0 1 2.50011,2.5001 2.5,2.5 0 0 1 -0.19276,0.9431 2.5,2.5 0 0 1 -0.0171,0.041 2.5,2.5 0 0 1 -0.52503,0.786 2.5,2.5 0 0 1 -0.0176,0.015 2.5,2.5 0 0 1 -0.74362,0.4966 2.5,2.5 0 0 1 -0.11886,0.049 2.5,2.5 0 0 1 -0.82734,0.1643 2.5,2.5 0 0 1 -0.0646,0.013 2.5,2.5 0 0 1 -2.5001,-2.5001 2.5,2.5 0 0 1 0.73432,-1.7694 2.5,2.5 0 0 1 1.7725,-0.739 z" /></g></svg>
