<?xml version="1.0" encoding="UTF-8" standalone="no"?>
<!-- Created with Inkscape (http://www.inkscape.org/) -->

<svg
   width="600mm"
   height="400mm"
   viewBox="0 0 600 400"
   version="1.1"
   id="svg5"
   xml:space="preserve"
   inkscape:version="1.2.2 (732a01da63, 2022-12-09)"
   sodipodi:docname="Case5mm.svg"
   inkscape:export-filename="Mid5mm.svg"
   inkscape:export-xdpi="96"
   inkscape:export-ydpi="96"
   xmlns:inkscape="http://www.inkscape.org/namespaces/inkscape"
   xmlns:sodipodi="http://sodipodi.sourceforge.net/DTD/sodipodi-0.dtd"
   xmlns="http://www.w3.org/2000/svg"
   xmlns:svg="http://www.w3.org/2000/svg"><sodipodi:namedview
     id="namedview7"
     pagecolor="#ffffff"
     bordercolor="#000000"
     borderopacity="0.25"
     inkscape:showpageshadow="2"
     inkscape:pageopacity="0.0"
     inkscape:pagecheckerboard="0"
     inkscape:deskcolor="#d1d1d1"
     inkscape:document-units="mm"
     showgrid="false"
     inkscape:lockguides="false"
     inkscape:zoom="0.5"
     inkscape:cx="1047"
     inkscape:cy="549"
     inkscape:window-width="1920"
     inkscape:window-height="1013"
     inkscape:window-x="-9"
     inkscape:window-y="29"
     inkscape:window-maximized="1"
     inkscape:current-layer="layer1" /><defs
     id="defs2" /><g
     inkscape:label="Layer 1"
     inkscape:groupmode="layer"
     id="layer1"><path
       id="path9980"
       style="opacity:0.75;fill:#000000;fill-opacity:0.74902;stroke-width:0.264583"
       d="m 37.083153,195.73029 c -5.53998,0 -9.9999,4.46043 -9.9999,10.00042 v 129.99982 c 0,5.53999 4.45992,9.9999 9.9999,9.9999 H 267.08307 c 5.53998,0 9.99991,-4.45991 9.99991,-9.9999 V 205.73071 c 0,-5.53999 -4.45993,-10.00042 -9.99991,-10.00042 H 150.38425 v 12.99869 h 4.46329 v 26.9999 h -24.00008 v -26.9999 h 4.53667 v -12.99869 z m 82.234257,4.98729 c 1.385,0 2.50011,1.11511 2.50011,2.50011 0,1.38499 -1.11511,2.5001 -2.50011,2.5001 -1.385,0 -2.5001,-1.11511 -2.5001,-2.5001 0,-1.385 1.1151,-2.50011 2.5001,-2.50011 z m 47.05966,0 c 1.385,0 2.50011,1.11511 2.50011,2.50011 0,1.38499 -1.11511,2.5001 -2.50011,2.5001 -1.385,0 -2.5001,-1.11511 -2.5001,-2.5001 0,-1.385 1.1151,-2.50011 2.5001,-2.50011 z m -131.788847,0.008 a 2.5,2.5 0 0 1 2.5001,2.5001 2.5,2.5 0 0 1 -0.19172,0.94051 2.5,2.5 0 0 1 -0.0191,0.0455 2.5,2.5 0 0 1 -0.524,0.78445 2.5,2.5 0 0 1 -0.0176,0.015 2.5,2.5 0 0 1 -0.74259,0.4961 2.5,2.5 0 0 1 -0.11989,0.0496 2.5,2.5 0 0 1 -0.82734,0.16433 2.5,2.5 0 0 1 -0.0646,0.0129 2.5,2.5 0 0 1 -2.50011,-2.50011 2.5,2.5 0 0 1 0.73536,-1.76992 2.5,2.5 0 0 1 1.77147,-0.73845 z m 235.009417,0 a 2.5,2.5 0 0 1 2.50011,2.5001 2.5,2.5 0 0 1 -0.19275,0.9431 2.5,2.5 0 0 1 -0.0171,0.0413 2.5,2.5 0 0 1 -0.52503,0.786 2.5,2.5 0 0 1 -0.0176,0.015 2.5,2.5 0 0 1 -0.74362,0.49662 2.5,2.5 0 0 1 -0.11886,0.0491 2.5,2.5 0 0 1 -0.82734,0.16433 2.5,2.5 0 0 1 -0.0646,0.0129 2.5,2.5 0 0 1 -2.50011,-2.50011 2.5,2.5 0 0 1 0.73432,-1.7694 2.5,2.5 0 0 1 1.7725,-0.73897 z M 77.254353,210.50689 H 124.9212 c 1.20034,0 2.16628,1.11459 2.16628,2.49959 v 9.99991 c 0,1.385 -0.96594,2.5001 -2.16628,2.5001 H 77.254353 c -1.20034,0 -2.1668,-1.1151 -2.1668,-2.5001 v -9.99991 c 0,-1.385 0.96646,-2.49959 2.1668,-2.49959 z m 102.756507,10.66292 h 19.50011 19.07067 19.03863 v 19.05 19.5001 h -19.03863 -19.07067 -19.05104 v 5.60638 h -19.5001 v -19.05 -19.50011 h 2.83704 v -0.0124 h 2.75022 v 0.0124 h 13.46377 z m -113.524847,8.7545 h 19.5001 19.033467 v 5.55625 h 19.08359 v 19.5001 h -19.50011 v -5.55625 h -18.616947 -19.5001 z m 57.525167,43.65574 h 39.49992 v 19.5001 h -39.49992 z m 28.04687,62.14246 c 1.385,0 2.5001,1.1151 2.5001,2.5001 0,1.385 -1.1151,2.49959 -2.5001,2.49959 -1.385,0 -2.49959,-1.11459 -2.49959,-2.49959 0,-1.385 1.11459,-2.5001 2.49959,-2.5001 z m -117.469827,0.007 a 2.5,2.5 0 0 1 2.5001,2.50011 2.5,2.5 0 0 1 -0.19172,0.94051 2.5,2.5 0 0 1 -0.0191,0.0455 2.5,2.5 0 0 1 -0.524,0.78444 2.5,2.5 0 0 1 -0.0176,0.015 2.5,2.5 0 0 1 -0.74259,0.49609 2.5,2.5 0 0 1 -0.11989,0.0496 2.5,2.5 0 0 1 -0.82734,0.16433 2.5,2.5 0 0 1 -0.0646,0.0129 2.5,2.5 0 0 1 -2.50011,-2.5001 2.5,2.5 0 0 1 0.73536,-1.76992 2.5,2.5 0 0 1 1.77147,-0.73846 z m 234.976347,0 a 2.5,2.5 0 0 1 2.50011,2.50011 2.5,2.5 0 0 1 -0.19276,0.94309 2.5,2.5 0 0 1 -0.0171,0.0413 2.5,2.5 0 0 1 -0.52503,0.78599 2.5,2.5 0 0 1 -0.0176,0.015 2.5,2.5 0 0 1 -0.74363,0.49661 2.5,2.5 0 0 1 -0.11885,0.0491 2.5,2.5 0 0 1 -0.82734,0.16433 2.5,2.5 0 0 1 -0.0646,0.0129 2.5,2.5 0 0 1 -2.5001,-2.5001 2.5,2.5 0 0 1 0.73432,-1.7694 2.5,2.5 0 0 1 1.7725,-0.73898 z" /></g></svg>
