<?xml version="1.0" encoding="UTF-8" standalone="no"?>
<!-- Created with Inkscape (http://www.inkscape.org/) -->

<svg
   width="600mm"
   height="400mm"
   viewBox="0 0 600 400"
   version="1.1"
   id="svg5"
   xml:space="preserve"
   inkscape:version="1.2.2 (732a01da63, 2022-12-09)"
   sodipodi:docname="Case2mm.svg"
   inkscape:export-filename="Top2mm.svg"
   inkscape:export-xdpi="96"
   inkscape:export-ydpi="96"
   xmlns:inkscape="http://www.inkscape.org/namespaces/inkscape"
   xmlns:sodipodi="http://sodipodi.sourceforge.net/DTD/sodipodi-0.dtd"
   xmlns="http://www.w3.org/2000/svg"
   xmlns:svg="http://www.w3.org/2000/svg"><sodipodi:namedview
     id="namedview7"
     pagecolor="#ffffff"
     bordercolor="#000000"
     borderopacity="0.25"
     inkscape:showpageshadow="2"
     inkscape:pageopacity="0.0"
     inkscape:pagecheckerboard="0"
     inkscape:deskcolor="#d1d1d1"
     inkscape:document-units="mm"
     showgrid="false"
     inkscape:lockguides="false"
     inkscape:zoom="0.35355339"
     inkscape:cx="485.07525"
     inkscape:cy="397.39401"
     inkscape:window-width="1920"
     inkscape:window-height="1013"
     inkscape:window-x="-9"
     inkscape:window-y="29"
     inkscape:window-maximized="1"
     inkscape:current-layer="layer1" /><defs
     id="defs2" /><g
     inkscape:label="Layer 1"
     inkscape:groupmode="layer"
     id="layer1"><path
       id="path9986"
       style="opacity:0.75;fill:#000000;fill-opacity:0.74902;stroke-width:0.264583"
       d="m 54.551416,208.30251 c -5.53999,0 -9.99991,4.46043 -9.99991,10.00043 v 129.99981 c 0,5.54 4.45992,9.99991 9.99991,9.99991 H 284.55127 c 5.54,0 9.9999,-4.45991 9.9999,-9.99991 V 218.30294 c 0,-5.54 -4.4599,-10.00043 -9.9999,-10.00043 z m 82.234254,4.9873 c 1.385,0 2.5001,1.1151 2.5001,2.5001 0,1.385 -1.1151,2.50011 -2.5001,2.50011 -1.385,0 -2.5001,-1.11511 -2.5001,-2.50011 0,-1.385 1.1151,-2.5001 2.5001,-2.5001 z m 47.0596,0 c 1.385,0 2.5001,1.1151 2.5001,2.5001 0,1.385 -1.1151,2.50011 -2.5001,2.50011 -1.385,0 -2.5001,-1.11511 -2.5001,-2.50011 0,-1.385 1.1151,-2.5001 2.5001,-2.5001 z m -131.788794,0.008 a 2.5,2.5 0 0 1 2.5001,2.5001 2.5,2.5 0 0 1 -0.19172,0.94051 2.5,2.5 0 0 1 -0.0191,0.046 2.5,2.5 0 0 1 -0.524,0.78444 2.5,2.5 0 0 1 -0.0176,0.015 2.5,2.5 0 0 1 -0.74259,0.49609 2.5,2.5 0 0 1 -0.11989,0.0496 2.5,2.5 0 0 1 -0.82734,0.16433 2.5,2.5 0 0 1 -0.0646,0.0124 2.5,2.5 0 0 1 -2.50011,-2.49959 2.5,2.5 0 0 1 0.73536,-1.77044 2.5,2.5 0 0 1 1.77147,-0.73845 z m 235.008894,0 h 5e-4 a 2.5,2.5 0 0 1 2.5001,2.5001 2.5,2.5 0 0 1 -0.1927,0.9431 2.5,2.5 0 0 1 -0.017,0.0413 2.5,2.5 0 0 1 -0.525,0.786 2.5,2.5 0 0 1 -0.018,0.015 2.5,2.5 0 0 1 -0.7436,0.49661 2.5,2.5 0 0 1 -0.1189,0.0491 2.5,2.5 0 0 1 -0.8273,0.16433 2.5,2.5 0 0 1 -0.065,0.0129 2.5,2.5 0 0 1 -2.5001,-2.50011 2.5,2.5 0 0 1 0.7343,-1.7694 2.5,2.5 0 0 1 1.7725,-0.73897 z m -192.342804,9.78338 h 47.666304 c 1.2004,0 2.1668,1.11511 2.1668,2.5001 v 9.99991 c 0,1.385 -0.9664,2.50011 -2.1668,2.50011 H 94.722566 c -1.2004,0 -2.1668,-1.11511 -2.1668,-2.50011 v -9.99991 c 0,-1.38499 0.9664,-2.5001 2.1668,-2.5001 z m 102.756504,10.66343 h 19.4996 19.0712 19.0386 v 19.05 19.5001 h -19.0386 -19.0712 -19.0505 v 5.60638 h -19.5001 V 258.85058 239.351 h 2.837 v -0.0124 h 2.7502 v 0.0124 h 13.4638 z m -113.524804,8.75451 h 19.499604 19.0339 v 5.55625 h 19.0831 v 19.5001 h -19.5001 v -5.55625 h -18.6169 -19.499604 z m 57.525104,43.65573 h 39.5 v 19.5001 h -39.5 z m 28.0469,62.13987 c 1.385,0 2.5001,1.11563 2.5001,2.50063 0,1.385 -1.1151,2.49959 -2.5001,2.49959 -1.385,0 -2.4996,-1.11459 -2.4996,-2.49959 0,-1.385 1.1146,-2.50063 2.4996,-2.50063 z m -117.469794,0.007 a 2.5,2.5 0 0 1 2.5001,2.50011 2.5,2.5 0 0 1 -0.19172,0.94051 2.5,2.5 0 0 1 -0.0191,0.0455 2.5,2.5 0 0 1 -0.524,0.78445 2.5,2.5 0 0 1 -0.0176,0.015 2.5,2.5 0 0 1 -0.74259,0.49609 2.5,2.5 0 0 1 -0.11989,0.0496 2.5,2.5 0 0 1 -0.82734,0.16433 2.5,2.5 0 0 1 -0.0646,0.0129 2.5,2.5 0 0 1 -2.50011,-2.50011 2.5,2.5 0 0 1 0.73536,-1.76991 2.5,2.5 0 0 1 1.77147,-0.73846 z m 234.975794,0 h 5e-4 a 2.5,2.5 0 0 1 2.5001,2.50011 2.5,2.5 0 0 1 -0.1927,0.94309 2.5,2.5 0 0 1 -0.017,0.0413 2.5,2.5 0 0 1 -0.525,0.786 2.5,2.5 0 0 1 -0.018,0.015 2.5,2.5 0 0 1 -0.7436,0.49661 2.5,2.5 0 0 1 -0.1189,0.0491 2.5,2.5 0 0 1 -0.8273,0.16433 2.5,2.5 0 0 1 -0.065,0.0129 2.5,2.5 0 0 1 -2.5001,-2.50011 2.5,2.5 0 0 1 0.7343,-1.7694 2.5,2.5 0 0 1 1.7725,-0.73897 z" /><path
       id="path9768"
       style="opacity:0.75;fill:#000000;fill-opacity:0.74902;stroke-width:0.264583"
       d="M 59.081665 40.192379 C 53.541691 40.192379 49.081759 44.652807 49.081759 50.192802 L 49.081759 180.19262 C 49.081759 185.73261 53.541691 190.19253 59.081665 190.19253 L 289.08158 190.19253 C 294.62157 190.19253 299.08149 185.73261 299.08149 180.19262 L 299.08149 50.192802 C 299.08149 44.652807 294.62157 40.192379 289.08158 40.192379 L 172.29233 40.192379 L 172.29233 53.224658 L 176.80109 53.224658 L 176.80109 107.22498 L 152.80153 107.22498 L 152.80153 53.224658 L 157.29221 53.224658 L 157.29221 40.192379 L 59.081665 40.192379 z M 141.31592 45.179671 C 142.70092 45.179671 143.81603 46.294788 143.81603 47.679777 C 143.81603 49.064776 142.70092 50.179883 141.31592 50.179883 C 139.93092 50.179883 138.81582 49.064776 138.81582 47.679777 C 138.81582 46.294788 139.93092 45.179671 141.31592 45.179671 z M 188.37558 45.179671 C 189.76058 45.179671 190.87569 46.294788 190.87569 47.679777 C 190.87569 49.064776 189.76058 50.179883 188.37558 50.179883 C 186.99058 50.179883 185.87548 49.064776 185.87548 47.679777 C 185.87548 46.294788 186.99058 45.179671 188.37558 45.179671 z M 56.586727 45.187939 A 2.5 2.5 0 0 1 59.086833 47.688045 A 2.5 2.5 0 0 1 58.895113 48.628556 A 2.5 2.5 0 0 1 58.875993 48.674548 A 2.5 2.5 0 0 1 58.351994 49.458997 A 2.5 2.5 0 0 1 58.334424 49.473983 A 2.5 2.5 0 0 1 57.591833 49.970076 A 2.5 2.5 0 0 1 57.471944 50.019686 A 2.5 2.5 0 0 1 56.644604 50.184017 A 2.5 2.5 0 0 1 56.580009 50.196419 A 2.5 2.5 0 0 1 54.079903 47.696313 A 2.5 2.5 0 0 1 54.815259 45.926396 A 2.5 2.5 0 0 1 56.586727 45.187939 z M 291.59615 45.187939 A 2.5 2.5 0 0 1 294.09626 47.688045 A 2.5 2.5 0 0 1 293.90351 48.63114 A 2.5 2.5 0 0 1 293.88645 48.672998 A 2.5 2.5 0 0 1 293.36142 49.458997 A 2.5 2.5 0 0 1 293.34333 49.473983 A 2.5 2.5 0 0 1 292.59971 49.970593 A 2.5 2.5 0 0 1 292.48086 50.019686 A 2.5 2.5 0 0 1 291.65352 50.184017 A 2.5 2.5 0 0 1 291.5884 50.196936 A 2.5 2.5 0 0 1 289.0883 47.69683 A 2.5 2.5 0 0 1 289.82262 45.927429 A 2.5 2.5 0 0 1 291.59512 45.188456 L 291.59615 45.187939 z M 101.0052 56.72677 L 144.96273 56.72677 C 146.08253 56.72677 146.98379 57.646034 146.98379 58.788143 L 146.98379 66.665181 C 146.98379 67.80728 146.08253 68.726554 144.96273 68.726554 L 101.0052 68.726554 C 99.885404 68.726554 98.983622 67.80728 98.983622 66.665181 L 98.983622 58.788143 C 98.983622 57.646034 99.885404 56.72677 101.0052 56.72677 z M 204.79163 68.417013 L 218.7913 68.417013 L 218.7913 82.416675 L 204.79163 82.416675 L 204.79163 68.417013 z M 223.8375 68.417013 L 237.83768 68.417013 L 237.83768 82.416675 L 223.8375 82.416675 L 223.8375 68.417013 z M 242.88802 68.417013 L 256.88768 68.417013 L 256.88768 82.416675 L 242.88802 82.416675 L 242.88802 68.417013 z M 185.75249 73.973779 L 199.75215 73.973779 L 199.75215 87.973958 L 185.75249 87.973958 L 185.75249 73.973779 z M 91.223372 77.138961 L 105.22355 77.138961 L 105.22355 91.13914 L 91.223372 91.13914 L 91.223372 77.138961 z M 110.30386 77.138961 L 124.30404 77.138961 L 124.30404 91.13914 L 110.30386 91.13914 L 110.30386 77.138961 z M 129.35645 82.705029 L 143.35662 82.705029 L 143.35662 96.705208 L 129.35645 96.705208 L 129.35645 82.705029 z M 204.79163 87.450476 L 218.7913 87.450476 L 218.7913 101.45014 L 204.79163 101.45014 L 204.79163 87.450476 z M 223.8375 87.450476 L 237.83768 87.450476 L 237.83768 101.45014 L 223.8375 101.45014 L 223.8375 87.450476 z M 242.88802 87.450476 L 256.88768 87.450476 L 256.88768 101.45014 L 242.88802 101.45014 L 242.88802 87.450476 z M 185.75249 93.007243 L 199.75215 93.007243 L 199.75215 107.00742 L 185.75249 107.00742 L 185.75249 93.007243 z M 150.41562 120.78229 L 157.41571 120.78229 L 157.41571 121.52592 L 157.42192 121.52592 L 157.42192 136.02632 L 150.42183 136.02632 L 150.42183 124.61875 L 150.41562 124.61875 L 150.41562 120.78229 z M 174.29427 120.78229 L 181.29436 120.78229 L 181.29436 124.61875 L 181.22873 124.61875 L 181.22873 136.02632 L 174.22864 136.02632 L 174.22864 121.52592 L 174.29427 121.52592 L 174.29427 120.78229 z M 158.80271 120.8133 L 172.80289 120.8133 L 172.80289 134.81348 L 158.80271 134.81348 L 158.80271 120.8133 z M 174.05656 180.18487 C 175.44156 180.18487 176.55667 181.29997 176.55667 182.68497 C 176.55667 184.06997 175.44156 185.18456 174.05656 185.18456 C 172.67156 185.18456 171.55697 184.06997 171.55697 182.68497 C 171.55697 181.29997 172.67156 180.18487 174.05656 180.18487 z M 291.56257 180.19417 L 291.56205 180.19469 L 291.56308 180.19469 A 2.5 2.5 0 0 1 294.06319 182.69479 A 2.5 2.5 0 0 1 293.87043 183.63789 A 2.5 2.5 0 0 1 293.85338 183.67871 A 2.5 2.5 0 0 1 293.32835 184.46471 A 2.5 2.5 0 0 1 293.31026 184.4797 A 2.5 2.5 0 0 1 292.56664 184.97631 A 2.5 2.5 0 0 1 292.44778 185.0254 A 2.5 2.5 0 0 1 291.62044 185.18973 A 2.5 2.5 0 0 1 291.55585 185.20265 A 2.5 2.5 0 0 1 289.05626 182.70254 A 2.5 2.5 0 0 1 289.79006 180.93314 A 2.5 2.5 0 0 1 291.56257 180.19417 z M 56.586727 180.19469 A 2.5 2.5 0 0 1 59.086833 182.69479 A 2.5 2.5 0 0 1 58.895113 183.6353 A 2.5 2.5 0 0 1 58.875993 183.68026 A 2.5 2.5 0 0 1 58.351994 184.46471 A 2.5 2.5 0 0 1 58.334424 184.4797 A 2.5 2.5 0 0 1 57.591833 184.97579 A 2.5 2.5 0 0 1 57.471944 185.02592 A 2.5 2.5 0 0 1 56.644604 185.19025 A 2.5 2.5 0 0 1 56.580009 185.20317 A 2.5 2.5 0 0 1 54.079903 182.70306 A 2.5 2.5 0 0 1 54.815259 180.93314 A 2.5 2.5 0 0 1 56.586727 180.19469 z " /><path
       id="path225"
       style="opacity:0.75;fill:#000000;fill-opacity:0.74902;stroke-width:0.264583"
       d="m 320.49,40.192379 c -5.53997,0 -9.9999,4.460428 -9.9999,10.000423 V 180.19262 c 0,5.53999 4.45993,9.99991 9.9999,9.99991 h 229.99992 c 5.53999,0 9.99991,-4.45992 9.99991,-9.99991 V 50.192802 c 0,-5.539995 -4.45992,-10.000423 -9.99991,-10.000423 H 433.70067 v 13.032279 h 4.50876 V 107.22498 H 414.20987 V 53.224658 h 4.49068 V 40.192379 Z m 82.23426,4.987292 c 1.385,0 2.50011,1.115117 2.50011,2.500106 0,1.384999 -1.11511,2.500106 -2.50011,2.500106 -1.385,0 -2.5001,-1.115107 -2.5001,-2.500106 0,-1.384989 1.1151,-2.500106 2.5001,-2.500106 z m 47.05966,0 c 1.385,0 2.50011,1.115117 2.50011,2.500106 0,1.384999 -1.11511,2.500106 -2.50011,2.500106 -1.385,0 -2.5001,-1.115107 -2.5001,-2.500106 0,-1.384989 1.1151,-2.500106 2.5001,-2.500106 z m -131.78886,0.0083 a 2.5,2.5 0 0 1 2.50011,2.500106 2.5,2.5 0 0 1 -0.19172,0.940511 2.5,2.5 0 0 1 -0.0191,0.04599 2.5,2.5 0 0 1 -0.524,0.784449 2.5,2.5 0 0 1 -0.0176,0.01499 2.5,2.5 0 0 1 -0.74259,0.496093 2.5,2.5 0 0 1 -0.11989,0.04961 2.5,2.5 0 0 1 -0.82734,0.164331 2.5,2.5 0 0 1 -0.0646,0.0124 2.5,2.5 0 0 1 -2.50011,-2.500106 2.5,2.5 0 0 1 0.73536,-1.769917 2.5,2.5 0 0 1 1.77146,-0.738457 z m 235.00943,0 a 2.5,2.5 0 0 1 2.50011,2.500106 2.5,2.5 0 0 1 -0.19275,0.943095 2.5,2.5 0 0 1 -0.0171,0.04186 2.5,2.5 0 0 1 -0.52503,0.785999 2.5,2.5 0 0 1 -0.0181,0.01499 2.5,2.5 0 0 1 -0.74362,0.49661 2.5,2.5 0 0 1 -0.11885,0.04909 2.5,2.5 0 0 1 -0.82734,0.164331 2.5,2.5 0 0 1 -0.0651,0.01292 2.5,2.5 0 0 1 -2.5001,-2.500106 2.5,2.5 0 0 1 0.73432,-1.769401 2.5,2.5 0 0 1 1.7725,-0.738973 z M 362.41354,56.72677 h 43.95753 c 1.1198,0 2.02106,0.919264 2.02106,2.061373 v 7.877038 c 0,1.142099 -0.90126,2.061373 -2.02106,2.061373 h -43.95753 c -1.1198,0 -2.02158,-0.919274 -2.02158,-2.061373 v -7.877038 c 0,-1.142109 0.90178,-2.061373 2.02158,-2.061373 z m 103.78643,11.690243 h 13.99967 v 13.999662 h -13.99967 z m 19.04587,0 h 14.00018 v 13.999662 h -14.00018 z m 19.05052,0 h 13.99966 v 13.999662 h -13.99966 z m -57.13553,5.556766 h 13.99966 v 14.000179 h -13.99966 z m -94.52912,3.165182 h 14.00018 V 91.13914 h -14.00018 z m 19.08049,0 h 14.00018 V 91.13914 H 371.7122 Z m 19.05259,5.566068 h 14.00017 v 14.000179 h -14.00017 z m 75.43518,4.745447 h 13.99967 v 13.999664 h -13.99967 z m 19.04587,0 h 14.00018 v 13.999664 h -14.00018 z m 19.05052,0 h 13.99966 v 13.999664 h -13.99966 z m -57.13553,5.556767 h 13.99966 v 14.000177 h -13.99966 z m -35.33687,27.775047 h 7.00009 v 0.74363 h 0.006 v 14.5004 h -6.99988 v -11.40757 h -0.006 z m 23.87865,0 h 7.00009 v 3.83646 h -0.0656 v 11.40757 h -7.00009 v -14.5004 h 0.0656 z m -15.49156,0.031 h 14.00018 v 14.00018 h -14.00018 z m 15.25385,59.37157 c 1.385,0 2.50011,1.1151 2.50011,2.5001 0,1.385 -1.11511,2.49959 -2.50011,2.49959 -1.385,0 -2.49959,-1.11459 -2.49959,-2.49959 0,-1.385 1.11459,-2.5001 2.49959,-2.5001 z m 117.50601,0.009 -5.2e-4,5.2e-4 h 0.001 a 2.5,2.5 0 0 1 2.50011,2.5001 2.5,2.5 0 0 1 -0.19276,0.9431 2.5,2.5 0 0 1 -0.017,0.0408 2.5,2.5 0 0 1 -0.52503,0.786 2.5,2.5 0 0 1 -0.0181,0.015 2.5,2.5 0 0 1 -0.74362,0.49661 2.5,2.5 0 0 1 -0.11886,0.0491 2.5,2.5 0 0 1 -0.82734,0.16433 2.5,2.5 0 0 1 -0.0646,0.0129 2.5,2.5 0 0 1 -2.49959,-2.50011 2.5,2.5 0 0 1 0.7338,-1.7694 2.5,2.5 0 0 1 1.77251,-0.73897 z m -234.97585,5.2e-4 a 2.5,2.5 0 0 1 2.50011,2.5001 2.5,2.5 0 0 1 -0.19172,0.94051 2.5,2.5 0 0 1 -0.0191,0.045 2.5,2.5 0 0 1 -0.524,0.78445 2.5,2.5 0 0 1 -0.0176,0.015 2.5,2.5 0 0 1 -0.74259,0.49609 2.5,2.5 0 0 1 -0.11989,0.0501 2.5,2.5 0 0 1 -0.82734,0.16433 2.5,2.5 0 0 1 -0.0646,0.0129 2.5,2.5 0 0 1 -2.50011,-2.50011 2.5,2.5 0 0 1 0.73536,-1.76992 2.5,2.5 0 0 1 1.77146,-0.73845 z" /></g></svg>
