<?xml version="1.0" encoding="UTF-8" standalone="no"?>
<!-- Created with Inkscape (http://www.inkscape.org/) -->

<svg
   width="600mm"
   height="400mm"
   viewBox="0 0 600 400"
   version="1.1"
   id="svg5"
   xml:space="preserve"
   inkscape:version="1.2.2 (732a01da63, 2022-12-09)"
   sodipodi:docname="Case2mm.svg"
   inkscape:export-filename="Top2mm.dxf"
   inkscape:export-xdpi="96"
   inkscape:export-ydpi="96"
   xmlns:inkscape="http://www.inkscape.org/namespaces/inkscape"
   xmlns:sodipodi="http://sodipodi.sourceforge.net/DTD/sodipodi-0.dtd"
   xmlns="http://www.w3.org/2000/svg"
   xmlns:svg="http://www.w3.org/2000/svg"><sodipodi:namedview
     id="namedview7"
     pagecolor="#ffffff"
     bordercolor="#000000"
     borderopacity="0.25"
     inkscape:showpageshadow="2"
     inkscape:pageopacity="0.0"
     inkscape:pagecheckerboard="0"
     inkscape:deskcolor="#d1d1d1"
     inkscape:document-units="mm"
     showgrid="false"
     inkscape:lockguides="false"
     inkscape:zoom="0.35355339"
     inkscape:cx="485.07525"
     inkscape:cy="397.39401"
     inkscape:window-width="1920"
     inkscape:window-height="1013"
     inkscape:window-x="-9"
     inkscape:window-y="29"
     inkscape:window-maximized="1"
     inkscape:current-layer="layer1" /><defs
     id="defs2" /><g
     inkscape:label="Layer 1"
     inkscape:groupmode="layer"
     id="layer1"><path
       id="path9768"
       style="opacity:0.75;fill:#000000;fill-opacity:0.74902;stroke-width:0.264583"
       d="m 59.081665,40.192379 c -5.539974,0 -9.999906,4.460428 -9.999906,10.000423 V 180.19262 c 0,5.53999 4.459932,9.99991 9.999906,9.99991 H 289.08158 c 5.53999,0 9.99991,-4.45992 9.99991,-9.99991 V 50.192802 c 0,-5.539995 -4.45992,-10.000423 -9.99991,-10.000423 H 172.29233 v 13.032279 h 4.50876 V 107.22498 H 152.80153 V 53.224658 h 4.49068 V 40.192379 Z m 82.234255,4.987292 c 1.385,0 2.50011,1.115117 2.50011,2.500106 0,1.384999 -1.11511,2.500106 -2.50011,2.500106 -1.385,0 -2.5001,-1.115107 -2.5001,-2.500106 0,-1.384989 1.1151,-2.500106 2.5001,-2.500106 z m 47.05966,0 c 1.385,0 2.50011,1.115117 2.50011,2.500106 0,1.384999 -1.11511,2.500106 -2.50011,2.500106 -1.385,0 -2.5001,-1.115107 -2.5001,-2.500106 0,-1.384989 1.1151,-2.500106 2.5001,-2.500106 z m -131.788853,0.0083 a 2.5,2.5 0 0 1 2.500106,2.500106 2.5,2.5 0 0 1 -0.19172,0.940511 2.5,2.5 0 0 1 -0.01912,0.04599 2.5,2.5 0 0 1 -0.523999,0.784449 2.5,2.5 0 0 1 -0.01757,0.01499 2.5,2.5 0 0 1 -0.742591,0.496093 2.5,2.5 0 0 1 -0.119889,0.04961 2.5,2.5 0 0 1 -0.82734,0.164331 2.5,2.5 0 0 1 -0.0646,0.0124 2.5,2.5 0 0 1 -2.500106,-2.500106 2.5,2.5 0 0 1 0.735356,-1.769917 2.5,2.5 0 0 1 1.771468,-0.738457 z m 235.009423,0 a 2.5,2.5 0 0 1 2.50011,2.500106 2.5,2.5 0 0 1 -0.19275,0.943095 2.5,2.5 0 0 1 -0.0171,0.04186 2.5,2.5 0 0 1 -0.52503,0.785999 2.5,2.5 0 0 1 -0.0181,0.01499 2.5,2.5 0 0 1 -0.74362,0.49661 2.5,2.5 0 0 1 -0.11885,0.04909 2.5,2.5 0 0 1 -0.82734,0.164331 2.5,2.5 0 0 1 -0.0651,0.01292 2.5,2.5 0 0 1 -2.5001,-2.500106 2.5,2.5 0 0 1 0.73432,-1.769401 2.5,2.5 0 0 1 1.7725,-0.738973 z M 101.0052,56.72677 h 43.95753 c 1.1198,0 2.02106,0.919264 2.02106,2.061373 v 7.877038 c 0,1.142099 -0.90126,2.061373 -2.02106,2.061373 H 101.0052 c -1.119796,0 -2.021578,-0.919274 -2.021578,-2.061373 v -7.877038 c 0,-1.142109 0.901782,-2.061373 2.021578,-2.061373 z m 103.78643,11.690243 h 13.99967 v 13.999662 h -13.99967 z m 19.04587,0 h 14.00018 V 82.416675 H 223.8375 Z m 19.05052,0 h 13.99966 v 13.999662 h -13.99966 z m -57.13553,5.556766 h 13.99966 V 87.973958 H 185.75249 Z M 91.223372,77.138961 H 105.22355 V 91.13914 H 91.223372 Z m 19.080488,0 h 14.00018 V 91.13914 h -14.00018 z m 19.05259,5.566068 h 14.00017 v 14.000179 h -14.00017 z m 75.43518,4.745447 h 13.99967 v 13.999664 h -13.99967 z m 19.04587,0 h 14.00018 V 101.45014 H 223.8375 Z m 19.05052,0 h 13.99966 v 13.999664 h -13.99966 z m -57.13553,5.556767 h 13.99966 v 14.000177 h -13.99966 z m -35.33687,27.775047 h 7.00009 v 0.74363 h 0.006 v 14.5004 h -7.00009 v -11.40757 h -0.006 z m 23.87865,0 h 7.00009 v 3.83646 h -0.0656 v 11.40757 h -7.00009 v -14.5004 h 0.0656 z m -15.49156,0.031 h 14.00018 v 14.00018 h -14.00018 z m 15.25385,59.37157 c 1.385,0 2.50011,1.1151 2.50011,2.5001 0,1.385 -1.11511,2.49959 -2.50011,2.49959 -1.385,0 -2.49959,-1.11459 -2.49959,-2.49959 0,-1.385 1.11459,-2.5001 2.49959,-2.5001 z m 117.50601,0.009 -5.2e-4,5.2e-4 h 10e-4 a 2.5,2.5 0 0 1 2.50011,2.5001 2.5,2.5 0 0 1 -0.19276,0.9431 2.5,2.5 0 0 1 -0.017,0.0408 2.5,2.5 0 0 1 -0.52503,0.786 2.5,2.5 0 0 1 -0.0181,0.015 2.5,2.5 0 0 1 -0.74362,0.49661 2.5,2.5 0 0 1 -0.11886,0.0491 2.5,2.5 0 0 1 -0.82734,0.16433 2.5,2.5 0 0 1 -0.0646,0.0129 2.5,2.5 0 0 1 -2.49959,-2.50011 2.5,2.5 0 0 1 0.7338,-1.7694 2.5,2.5 0 0 1 1.77251,-0.73897 z m -234.975843,5.2e-4 a 2.5,2.5 0 0 1 2.500106,2.5001 2.5,2.5 0 0 1 -0.19172,0.94051 2.5,2.5 0 0 1 -0.01912,0.045 2.5,2.5 0 0 1 -0.523999,0.78445 2.5,2.5 0 0 1 -0.01757,0.015 2.5,2.5 0 0 1 -0.742591,0.49609 2.5,2.5 0 0 1 -0.119889,0.0501 2.5,2.5 0 0 1 -0.82734,0.16433 2.5,2.5 0 0 1 -0.0646,0.0129 2.5,2.5 0 0 1 -2.500106,-2.50011 2.5,2.5 0 0 1 0.735356,-1.76992 2.5,2.5 0 0 1 1.771468,-0.73845 z" /></g></svg>
